<svg width="236" height="59" viewBox="0 0 236 59" fill="currentColor" xmlns="http://www.w3.org/2000/svg">
<path d="M11.2886 47.4778C10.8729 45.6834 10.8222 43.8196 11.1365 41.9063C11.4508 39.9929 12.0186 38.1291 12.8297 36.295C13.6408 34.4709 14.6445 32.726 15.8307 31.0704C17.0169 29.4148 18.2741 27.9377 19.6023 26.6191C19.7544 26.4407 19.805 26.2523 19.7645 26.054C19.7239 25.8558 19.6225 25.6773 19.4806 25.5385C19.3387 25.3997 19.1562 25.3204 18.9534 25.2907C18.7405 25.2708 18.5681 25.3502 18.4161 25.5187C17.4022 26.8372 16.1653 28.0665 14.7154 29.2066C13.2656 30.3368 11.7347 31.2092 10.1226 31.814C9.28113 32.161 8.38893 32.3691 7.44604 32.4485C6.50315 32.5278 5.60081 32.4485 4.73902 32.2403C3.87724 32.0321 3.08642 31.6752 2.36658 31.1993C1.64674 30.7135 1.07897 30.089 0.673428 29.3058C0.257743 28.4829 0.0346932 27.6601 0.00427724 26.8571C-0.0261387 26.054 0.105664 25.2907 0.399684 24.5571C0.683566 23.8333 1.10939 23.1394 1.67715 22.495C2.24492 21.8506 2.91407 21.2458 3.69474 20.6907C4.93166 19.7687 6.35107 18.9756 7.94283 18.3113C9.5346 17.6471 11.3596 17.0225 13.4076 16.4178C15.0196 15.9419 16.4897 15.7437 17.8179 15.8031C19.1359 15.8626 20.3221 16.1402 21.3664 16.626C22.4107 17.1118 23.3333 17.8156 24.1342 18.7277C24.9352 19.6398 25.655 20.6907 26.2938 21.9001C27.0947 23.4269 27.845 25.1023 28.5344 26.9364C29.2238 28.7704 29.8322 30.6541 30.3594 32.5873C30.8764 34.5204 31.3124 36.4735 31.6571 38.4364C32.0018 40.4093 32.2249 42.2731 32.3161 44.0278C32.3972 45.3959 32.2857 46.7145 31.9917 47.9735C31.6977 49.2326 31.2009 50.3826 30.5013 51.4136C29.8017 52.4447 28.869 53.3369 27.7132 54.0903C26.5574 54.8438 25.1481 55.4089 23.5056 55.7856C22.0761 56.1029 20.7175 56.1425 19.4096 55.9145C18.1018 55.6865 16.9155 55.2205 15.8408 54.5266C14.7661 53.8326 13.8334 52.8908 13.0527 51.711C12.272 50.5313 11.684 49.1235 11.2784 47.4877L11.2886 47.4778ZM44.5433 51.4434C43.6106 51.711 42.7184 51.83 41.8566 51.8003C41.0049 51.7705 40.2243 51.5722 39.545 51.2054C38.8556 50.8386 38.2777 50.3132 37.791 49.6093C37.3043 48.9054 36.9698 48.0231 36.7771 46.9524C35.8647 41.8567 34.6683 36.87 33.1881 32.0123C31.7078 27.1446 29.964 22.4454 27.9667 17.895C27.0238 15.6842 26.9426 13.8799 27.7335 12.4721C28.5243 11.0643 29.8626 10.0829 31.7686 9.5376C33.4111 9.06174 34.9116 9.12122 36.2702 9.71605C37.6288 10.3109 38.6731 11.5303 39.4335 13.3643C41.4713 18.1626 43.3064 23.2286 44.9286 28.5523C46.5508 33.876 47.8587 39.1006 48.8421 44.2459C49.2071 46.1295 48.9942 47.6761 48.2034 48.9054C47.4126 50.1347 46.1858 50.9873 44.5433 51.4632V51.4434Z"/>
<path d="M61.9108 20.8294C62.6104 21.8902 63.0362 22.9213 63.1883 23.9226C63.3404 24.9239 63.2998 25.9846 63.0565 27.1049C62.3874 27.4519 61.8297 27.7592 61.3938 28.0467C60.9578 28.3243 60.5218 28.6415 60.0757 28.9885C59.9237 29.1075 59.8426 29.2265 59.8324 29.3553C59.8121 29.4842 59.8527 29.6032 59.9237 29.7023C60.0048 29.8015 60.1163 29.8709 60.2684 29.9006C60.4205 29.9303 60.5827 29.8808 60.7652 29.7618C61.8094 28.9885 62.9754 28.3045 64.2934 27.7196C65.6013 27.1346 67.0004 26.7381 68.4807 26.5497C70.6706 26.2622 72.455 26.6489 73.844 27.6997C75.233 28.7506 76.2672 30.4657 76.9464 32.8351C77.6663 35.2045 77.6663 37.2666 76.9464 39.0312C76.2367 40.786 74.8984 42.1739 72.9518 43.205C71.6135 43.9188 70.1231 44.4541 68.4807 44.7912C66.8382 45.1282 65.1856 45.4157 63.5127 45.6338C61.9717 45.8321 60.5928 45.8024 59.3762 45.5248C58.1595 45.2472 57.0848 44.7713 56.1622 44.0675C55.2396 43.3636 54.4387 42.4812 53.7898 41.4006C53.1308 40.32 52.5934 39.0709 52.1777 37.6532C51.7012 36.1166 51.2754 34.4709 50.8901 32.7062C50.5049 30.9515 50.1804 29.1571 49.9371 27.3329C49.6938 25.5088 49.5113 23.6945 49.42 21.9001C49.3186 20.1057 49.2984 18.4006 49.3389 16.7945C49.4302 13.8402 49.9777 11.5402 51.0017 9.90441C52.0257 8.26863 53.5465 7.17811 55.564 6.62293C57.3586 6.12724 59.1328 5.77034 60.8666 5.55224C62.6003 5.33413 64.3847 5.18543 66.2096 5.14577C68.2678 5.10612 69.9102 5.61172 71.1573 6.68242C72.4043 7.75311 73.1749 9.40872 73.479 11.6393C73.7933 13.9393 73.5399 15.8329 72.7085 17.3299C71.8771 18.8269 70.3867 19.7191 68.2374 19.9967L61.921 20.8195L61.9108 20.8294ZM90.6437 29.9502C90.7756 31.3778 90.8871 32.7954 90.9783 34.2032C91.0696 35.611 91.1304 37.0187 91.1608 38.4265C91.2217 40.3399 90.7654 41.8368 89.782 42.9274C88.7985 44.0179 87.4602 44.6722 85.7569 44.8903C83.8002 45.1481 82.1678 44.811 80.86 43.8989C79.5521 42.9769 78.8728 41.4403 78.8018 39.2692C78.7511 34.0941 78.3861 28.9885 77.6967 23.9523C77.0073 18.9161 76.034 14.0087 74.7565 9.21044C74.4726 8.06044 74.3915 7.03931 74.5334 6.14707C74.6754 5.24491 74.9694 4.48155 75.4256 3.84706C75.8819 3.21258 76.4902 2.69706 77.2506 2.31042C78.011 1.92378 78.8829 1.66602 79.8461 1.53714C81.5494 1.31903 83.0195 1.60654 84.2564 2.39964C85.4933 3.20266 86.345 4.56086 86.8012 6.48414C87.0749 7.56475 87.3386 8.66518 87.5717 9.76562C87.8049 10.8661 88.028 12.0061 88.251 13.1561L89.6299 12.829C90.7249 12.4919 91.6779 12.9579 92.4687 14.2368C93.2595 15.5057 93.878 17.7165 94.3038 20.8592C94.7398 24.0316 94.7398 26.3415 94.3038 27.7691C93.878 29.1967 93.0973 29.9303 91.9516 29.9502L90.6235 29.9303L90.6437 29.9502Z"/>
<path d="M127.254 21.5631C127.254 21.2161 127.254 20.8691 127.244 20.5419C127.234 20.2049 127.224 19.8678 127.234 19.5208H126.119C125.571 19.5109 125.085 19.4217 124.659 19.2631C124.233 19.1044 123.878 18.8169 123.574 18.4204C123.27 18.0238 123.037 17.4786 122.885 16.7945C122.722 16.1105 122.651 15.248 122.662 14.1971C122.682 12.135 123.006 10.6876 123.645 9.85484C124.284 9.02208 125.145 8.62553 126.21 8.66518H126.697C126.666 8.38759 126.636 8.09018 126.605 7.79277C126.575 7.49535 126.545 7.19794 126.514 6.91043C126.271 4.53112 126.747 2.77637 127.923 1.66602C129.1 0.55567 130.681 -0.0193317 132.658 0.000495967C134.382 0.0104098 135.791 0.506101 136.906 1.46774C138.022 2.42938 138.66 3.89663 138.843 5.85957C139.35 11.0346 139.573 16.398 139.522 21.9497C139.471 27.5015 139.147 32.8748 138.549 38.0696C138.336 39.9731 137.667 41.3907 136.541 42.3325C135.416 43.2744 133.986 43.7403 132.273 43.7205C131.3 43.7205 130.407 43.5718 129.596 43.2942C128.785 43.0166 128.106 42.6101 127.558 42.0649C127.011 41.5196 126.616 40.8455 126.362 40.0325C126.109 39.2196 126.058 38.2778 126.19 37.1972C126.291 36.3743 126.393 35.5713 126.484 34.798C126.575 34.0248 126.656 33.2217 126.727 32.3989L125.703 32.4385H125.561C125.51 34.3123 125.095 35.839 124.304 37.0386C123.513 38.2381 122.489 39.1799 121.212 39.864C119.944 40.5481 118.505 41.0338 116.893 41.3015C115.281 41.5692 113.648 41.6981 111.996 41.6881C107.748 41.6485 104.371 40.9743 101.867 39.6459C99.3629 38.3274 97.9435 36.4735 97.6089 34.0842C97.3048 32.0816 97.1425 30.089 97.1223 28.1062C97.1121 26.1234 97.3048 24.2795 97.7103 22.5644C97.9131 21.6424 98.1564 20.7997 98.4403 20.0264C98.7242 19.2532 99.0993 18.5889 99.5758 18.0337C100.052 17.4885 100.651 17.0523 101.36 16.745C102.08 16.4376 102.972 16.279 104.037 16.2889C104.817 16.2889 105.507 16.2889 106.105 16.2889C106.703 16.2889 107.281 16.2493 107.839 16.2096C108.386 16.1699 108.964 16.1105 109.573 16.0312C110.171 15.9518 110.86 15.8626 111.641 15.7437C111.833 15.7139 111.986 15.6247 112.077 15.4661C112.178 15.3074 112.229 15.1389 112.229 14.9406C112.229 14.7523 112.188 14.5837 112.087 14.4449C111.996 14.2962 111.844 14.2467 111.651 14.2764C110.901 14.3656 110.262 14.4449 109.725 14.5243C109.187 14.6036 108.66 14.6531 108.143 14.7027C107.626 14.7424 107.099 14.782 106.561 14.8118C106.024 14.8415 105.406 14.8514 104.686 14.8415C103.358 14.8316 102.252 14.6928 101.38 14.435C100.509 14.1773 99.809 13.8005 99.2717 13.2949C98.7445 12.7992 98.3693 12.1846 98.1463 11.451C97.9232 10.7173 97.8218 9.87467 97.832 8.92294C97.8624 5.08629 100.286 2.70697 105.101 1.7949C106.075 1.61645 106.916 1.48757 107.616 1.40826C108.315 1.33886 108.964 1.28929 109.562 1.27938C110.161 1.26947 110.769 1.27938 111.387 1.33886C112.006 1.39835 112.736 1.48757 113.577 1.61645C114.551 1.75524 115.473 1.95352 116.345 2.21128C117.217 2.46904 117.998 2.84576 118.697 3.32163C119.387 3.80741 119.985 4.42206 120.482 5.1656C120.978 5.91905 121.323 6.83112 121.506 7.91173C121.881 9.81519 122.053 11.7781 122.033 13.7906C122.013 15.8031 121.8 17.6174 121.404 19.2333C121.131 20.2445 120.654 20.9484 119.975 21.3351C119.285 21.7217 118.413 21.92 117.339 21.9101C115.94 21.9001 114.682 21.9398 113.567 22.0389C112.442 22.1381 111.428 22.2868 110.495 22.4652C109.562 22.6437 108.701 22.8816 107.89 23.1592C107.078 23.4368 106.257 23.7639 105.446 24.1407C105.253 24.2299 105.132 24.3786 105.081 24.567C105.03 24.7553 105.041 24.9437 105.122 25.1122C105.203 25.2907 105.314 25.4196 105.456 25.5187C105.598 25.6178 105.771 25.6377 105.963 25.5683C106.642 25.2907 107.443 25.0131 108.356 24.7355C109.268 24.4579 110.211 24.2101 111.185 24.0019C112.158 23.7937 113.131 23.6251 114.104 23.5062C115.078 23.3872 116 23.3376 116.882 23.3376C119.154 23.3575 120.999 23.8829 122.418 24.904C122.591 23.5756 122.986 22.6734 123.584 22.1976C124.192 21.7316 124.933 21.4937 125.804 21.5036H127.264L127.254 21.5631Z"/>
<path d="M151.253 32.376C150.523 32.2471 149.833 32.1182 149.194 31.9894C148.556 31.8704 147.998 31.7415 147.532 31.6126C144.956 31.0674 143.861 29.4415 144.257 26.735C144.429 25.5454 144.896 24.6432 145.656 24.0484C146.416 23.4535 147.42 23.3148 148.687 23.6518C149.732 23.8898 151.141 24.1574 152.895 24.4548C154.659 24.7523 156.494 25.0298 158.4 25.2876C160.306 25.5553 162.162 25.7833 163.956 25.9617C165.751 26.1501 167.211 26.2691 168.346 26.3286C169.644 26.3781 170.638 26.8044 171.307 27.6074C171.976 28.4105 172.229 29.4018 172.057 30.5915C171.864 31.91 171.368 32.8816 170.557 33.5062C169.745 34.1307 168.701 34.3984 167.434 34.3191C166.876 34.3092 166.217 34.2695 165.436 34.2101C164.656 34.1506 163.835 34.0713 162.963 33.982L161.898 41.3282C161.787 42.1114 161.604 42.726 161.361 43.1722C161.117 43.6183 160.752 43.9454 160.286 44.1536C159.81 44.3618 159.191 44.451 158.431 44.4213C157.66 44.3916 156.687 44.3023 155.501 44.1338C154.345 43.9752 153.392 43.7967 152.652 43.6183C151.912 43.4299 151.344 43.1821 150.948 42.8549C150.553 42.5278 150.299 42.1114 150.198 41.6157C150.097 41.12 150.097 40.4756 150.198 39.6924L151.263 32.3462L151.253 32.376ZM152.966 9.78238L152.439 9.71298C150.654 9.366 149.367 8.82074 148.576 8.06729C147.785 7.31383 147.491 6.23323 147.694 4.81555C147.897 3.43753 148.495 2.4164 149.488 1.77201C150.482 1.12761 151.891 0.879761 153.696 1.03838C155.024 1.15735 156.393 1.30606 157.812 1.49442C159.232 1.67287 160.59 1.86123 161.908 2.03968C163.257 2.22804 164.636 2.42632 166.045 2.63451C167.454 2.8427 168.833 3.08063 170.171 3.32848C171.925 3.66555 173.182 4.2802 173.933 5.17245C174.693 6.06469 174.967 7.19487 174.764 8.58281C174.561 10.0005 173.973 10.9621 173.02 11.4677C172.057 11.9733 170.688 12.1518 168.914 12.0031L168.721 11.9733C169.137 12.2906 169.563 12.5682 169.999 12.8259C170.435 13.0738 170.871 13.3117 171.297 13.5298C172.361 14.0652 173.101 14.9475 173.487 16.1867C173.882 17.4259 173.882 18.8337 173.487 20.4199C173 22.4027 172.27 23.8005 171.276 24.6036C170.293 25.4165 168.934 25.6941 167.19 25.4561C165.842 25.2678 164.767 25.0596 163.966 24.8117C163.165 24.5738 162.577 24.2169 162.202 23.751C161.827 23.285 161.624 22.6803 161.604 21.9367C161.584 21.1932 161.655 20.2117 161.837 18.9923C161.989 17.9514 162.04 17.0294 161.989 16.2264C161.939 15.4233 161.726 14.6501 161.34 13.9264C161.239 13.6884 161.097 13.5496 160.915 13.51C160.732 13.4703 160.55 13.4802 160.398 13.5298C160.245 13.5893 160.114 13.6983 160.033 13.8669C159.941 14.0354 159.962 14.2039 160.104 14.3824C160.641 15.4531 160.752 17.0492 160.438 19.1906C160.286 20.2316 160.114 21.0643 159.921 21.7186C159.728 22.363 159.374 22.8389 158.857 23.1561C158.339 23.4734 157.589 23.632 156.596 23.632C155.612 23.632 154.233 23.5229 152.469 23.2751C150.127 22.9479 148.333 22.2639 147.096 21.2031C145.859 20.1522 145.352 18.5958 145.585 16.5436C145.676 15.463 145.869 14.5608 146.173 13.8173C146.477 13.0738 146.832 12.4789 147.248 12.0229C147.653 11.5669 148.12 11.2298 148.627 11.0117C149.134 10.7936 149.64 10.6449 150.147 10.5457C151.222 10.3772 152.155 10.1194 152.966 9.78238ZM172.919 36.2027C173.892 31.9497 174.642 27.6967 175.17 23.4436C175.687 19.1906 176.021 14.9772 176.173 10.7936C176.224 8.4341 176.893 6.75866 178.201 5.78711C179.509 4.81555 181.141 4.46857 183.098 4.73624C184.832 4.97417 186.19 5.64831 187.153 6.73883C188.127 7.83927 188.583 9.37591 188.522 11.3488C188.289 16.5436 187.782 21.8872 186.981 27.3794C186.18 32.8717 185.156 38.1657 183.889 43.2415C183.392 45.0954 182.52 46.414 181.273 47.2071C180.026 47.9903 178.536 48.2679 176.802 48.0299C175.677 47.8713 174.703 47.5541 173.872 47.0683C173.04 46.5825 172.422 45.948 172.016 45.1549L166.714 44.4213C165.649 44.2726 164.859 43.8364 164.321 43.1028C163.784 42.3691 163.642 41.1596 163.895 39.4644C164.149 37.7096 164.636 36.5497 165.355 35.9945C166.075 35.4394 166.957 35.251 168.022 35.4295L172.919 36.2027Z"/>
<path d="M189.212 42.6894C189.678 41.2024 190.509 40.0821 191.696 39.3287C192.882 38.5752 194.403 38.1291 196.248 37.9903C198.093 37.8515 200.222 37.9903 202.655 38.4364C205.079 38.8726 207.786 39.5368 210.756 40.439C213.696 41.3313 216.312 42.2532 218.593 43.205C220.875 44.1567 222.73 45.1877 224.17 46.2882C225.609 47.3886 226.593 48.5783 227.13 49.877C227.667 51.1757 227.698 52.6033 227.191 54.1796C226.704 55.7261 225.863 56.886 224.666 57.6494C223.47 58.4128 221.97 58.8589 220.145 58.9679C218.33 59.077 216.201 58.9085 213.757 58.4524C211.314 57.9964 208.627 57.3223 205.687 56.43C202.706 55.5279 200.101 54.586 197.84 53.6046C195.579 52.6231 193.733 51.5722 192.294 50.452C190.844 49.3317 189.85 48.1321 189.303 46.8533C188.755 45.5744 188.725 44.1765 189.201 42.6597L189.212 42.6894ZM199.371 28.126C199.746 26.9463 200.131 26.0838 200.547 25.5385C198.904 24.2795 197.758 22.951 197.099 21.5532C196.44 20.1553 196.359 18.6682 196.856 17.0919C197.312 15.6346 198.174 14.5143 199.421 13.7312C200.668 12.948 202.25 12.482 204.146 12.3234C206.042 12.1648 208.242 12.2937 210.726 12.7001C213.21 13.1066 215.947 13.7609 218.918 14.6531C221.858 15.5454 224.484 16.507 226.775 17.5282C229.067 18.5493 230.952 19.6497 232.433 20.8096C233.913 21.9695 234.947 23.2187 235.525 24.5571C236.103 25.8954 236.154 27.323 235.677 28.8398C235.16 30.4756 234.227 31.695 232.899 32.4782C231.561 33.2713 229.857 33.7174 227.789 33.8166C227.82 34.1536 227.789 34.5403 227.678 34.9765C227.576 35.4127 227.424 35.9282 227.232 36.533L227.059 37.0782C227.505 37.1774 227.941 37.2864 228.387 37.4054C228.823 37.5243 229.269 37.6334 229.705 37.7325C231.094 38.0498 232.078 38.6347 232.646 39.4675C233.213 40.3002 233.355 41.1627 233.082 42.0351C232.747 43.0959 232.108 43.78 231.175 44.0972C230.243 44.4145 229.067 44.3946 227.657 44.0278C225.031 43.433 222.284 42.7489 219.435 41.9856C216.586 41.2222 213.727 40.4093 210.858 39.5368C207.988 38.6644 205.18 37.7722 202.412 36.8304C199.654 35.8985 197.059 34.9666 194.636 34.0347C193.328 33.539 192.385 32.9144 191.797 32.151C191.209 31.3877 191.077 30.4855 191.412 29.4247C191.685 28.5424 192.304 27.9178 193.257 27.5411C194.21 27.1644 195.335 27.2239 196.643 27.7196C197.069 27.8782 197.495 28.0467 197.921 28.2053C198.347 28.364 198.772 28.5325 199.188 28.6911L199.371 28.0963V28.126ZM205.291 50.2934C205.129 50.3727 205.038 50.5015 205.018 50.68C204.997 50.8584 205.018 51.0171 205.089 51.1757C205.16 51.3343 205.291 51.4533 205.484 51.5425C205.677 51.6317 205.89 51.6317 206.123 51.5425C207.238 51.1162 208.252 50.4619 209.144 49.5696C210.036 48.6774 210.827 47.7356 211.517 46.7541C211.689 46.536 211.75 46.3377 211.709 46.1395C211.669 45.9412 211.567 45.8024 211.415 45.7032C211.263 45.6041 211.091 45.5545 210.908 45.5446C210.726 45.5446 210.574 45.614 210.452 45.7826C209.773 46.7442 209.033 47.577 208.232 48.3007C207.431 49.0244 206.447 49.6886 205.302 50.3033L205.291 50.2934ZM215.532 34.0148L215.815 33.1028L216.12 32.151C215.673 32.0519 215.248 31.9429 214.852 31.814C214.457 31.6851 214.031 31.5661 213.595 31.4372C213.159 31.3084 212.733 31.1795 212.318 31.0506C211.902 30.9217 211.476 30.7829 211.05 30.6144L210.746 31.5661L210.462 32.4782L215.532 34.0148ZM213.352 23.8433C213.169 23.8829 213.048 24.0118 212.987 24.2002C212.926 24.3984 212.926 24.5967 212.997 24.8049C213.068 25.0131 213.2 25.1717 213.402 25.3006C213.595 25.4295 213.849 25.4493 214.143 25.3799C215.379 25.1221 216.566 24.676 217.701 24.0415C218.837 23.4071 219.769 22.6338 220.499 21.7217C220.672 21.5036 220.743 21.2855 220.712 21.0575C220.682 20.8295 220.611 20.6312 220.489 20.4726C220.368 20.304 220.226 20.195 220.033 20.1355C219.84 20.076 219.678 20.1355 219.526 20.2842C217.651 22.0389 215.592 23.2286 213.352 23.8433Z"/>
</svg>
