<svg width="156" height="27" viewBox="0 0 156 27" fill="none" xmlns="http://www.w3.org/2000/svg">
<rect x="23.1372" y="3.53125" width="108.938" height="19.4663" fill="#6E726E"/>
<rect x="22.1731" y="5.82129" width="110.866" height="14.886" fill="#6E726E"/>
<path d="M25.0652 2.38623H130.147V8.11162H25.0652V2.38623Z" fill="#6E726E"/>
<path d="M25.0652 18.4172H130.147V24.1426H25.0652V18.4172Z" fill="#6E726E"/>
<rect x="21.209" y="10.4016" width="112.794" height="6.87047" fill="#6E726E"/>
<rect x="27.9573" y="0.0959473" width="99.2972" height="26.3368" fill="#6E726E"/>
<rect x="26.9932" y="1.24097" width="101.225" height="24.0466" fill="#6E726E"/>
<path d="M134.003 3.53125H155.212V5.82141H134.003V3.53125Z" fill="#6E726E"/>
<path d="M134.003 3.53125H155.212V4.67633H134.003V3.53125Z" fill="#6E726E"/>
<path d="M133.039 3.53125H155.212V4.67633H133.039V3.53125Z" fill="#6E726E"/>
<path d="M134.003 8.11157H155.212V9.25665H134.003V8.11157Z" fill="#6E726E"/>
<rect x="134.967" y="8.11157" width="20.2451" height="2.29016" fill="#6E726E"/>
<rect x="134.967" y="17.2722" width="20.2451" height="2.29016" fill="#6E726E"/>
<rect x="134.967" y="12.6919" width="20.2451" height="2.29016" fill="#6E726E"/>
<rect x="134.003" y="18.4172" width="21.2091" height="1.14508" fill="#6E726E"/>
<rect x="134.003" y="21.8525" width="21.2091" height="1.14508" fill="#6E726E"/>
<rect x="133.039" y="22.9976" width="22.1732" height="1.14508" fill="#6E726E"/>
<path d="M21.209 24.1426L-0.000125885 24.1426V21.8524L21.209 21.8524V24.1426Z" fill="#6E726E"/>
<path d="M21.209 22.9976L-0.000125885 22.9976V21.8525L21.209 21.8525V22.9976Z" fill="#6E726E"/>
<path d="M22.1731 24.1426L-6.48499e-05 24.1426V22.9975L22.1731 22.9975V24.1426Z" fill="#6E726E"/>
<path d="M21.209 19.5623L-0.000125885 19.5623V18.4172L21.209 18.4172V19.5623Z" fill="#6E726E"/>
<rect x="20.2451" y="19.5623" width="20.2451" height="2.29016" transform="rotate(-180 20.2451 19.5623)" fill="#6E726E"/>
<rect x="20.2451" y="10.4016" width="20.2451" height="2.29016" transform="rotate(-180 20.2451 10.4016)" fill="#6E726E"/>
<rect x="20.2451" y="14.9819" width="20.2451" height="2.29016" transform="rotate(-180 20.2451 14.9819)" fill="#6E726E"/>
<rect x="21.209" y="9.25659" width="21.2091" height="1.14508" transform="rotate(-180 21.209 9.25659)" fill="#6E726E"/>
<rect x="21.209" y="5.82129" width="21.2091" height="1.14508" transform="rotate(-180 21.209 5.82129)" fill="#6E726E"/>
<rect x="22.1731" y="4.67627" width="22.1732" height="1.14508" transform="rotate(-180 22.1731 4.67627)" fill="#6E726E"/>
<rect x="23.1372" y="3.53125" width="108.938" height="19.4663" fill="#6E726E"/>
<rect x="22.1731" y="5.82129" width="110.866" height="14.886" fill="#6E726E"/>
<path d="M25.0652 2.38623H130.147V8.11162H25.0652V2.38623Z" fill="#6E726E"/>
<path d="M25.0652 18.4172H130.147V24.1426H25.0652V18.4172Z" fill="#6E726E"/>
<rect x="21.209" y="10.4016" width="112.794" height="6.87047" fill="#6E726E"/>
<rect x="27.9573" y="0.0959473" width="99.2972" height="26.3368" fill="#6E726E"/>
<rect x="26.9932" y="1.24097" width="101.225" height="24.0466" fill="#6E726E"/>
</svg>
