<svg width="84" height="84" viewBox="0 0 84 84" fill="none" xmlns="http://www.w3.org/2000/svg">
<g filter="url(#filter0_d_29_7)">
<rect x="1" width="80" height="80" rx="20" fill="white"/>
<rect x="3" y="2" width="76" height="76" rx="18" stroke="black" stroke-width="4"/>
</g>
<g filter="url(#filter1_d_29_7)">
<path d="M36.075 42.4621C36.0274 42.2084 35.9957 41.8832 35.9957 41.4946C35.9957 41.106 36.0353 40.6857 36.1067 40.2415C36.186 39.7974 36.3129 39.3454 36.5032 38.8933C36.6936 38.4333 36.9553 37.9892 37.2805 37.5609C38.1687 36.4665 39.3266 35.491 40.7462 34.6265C41.1745 34.3965 41.5234 34.1348 41.7931 33.8255C42.0627 33.5242 42.1896 33.088 42.1896 32.5328C42.1896 32.1045 42.0944 31.8349 41.9041 31.7318C41.7138 31.6287 41.4441 31.5811 41.0872 31.5811C40.3497 31.5811 39.9452 31.938 39.8659 32.6438C39.7866 33.0007 39.628 33.3576 39.3742 33.7066C39.1204 34.0634 38.7873 34.3886 38.367 34.6741C37.9466 34.9676 37.447 35.2055 36.8601 35.3958C36.2733 35.5862 35.6309 35.6813 34.9171 35.6813C34.0288 35.6813 33.2754 35.5624 32.6489 35.3165C32.0303 35.0786 31.5227 34.7534 31.1262 34.349C30.7296 33.9445 30.4441 33.4766 30.2696 32.9373C30.0952 32.398 30 31.8349 30 31.2242C30 30.0029 30.2617 28.8926 30.7772 27.8933C31.3006 26.894 32.0382 26.0296 33.0058 25.3079C33.9733 24.5862 35.1391 24.0231 36.5112 23.6107C37.8832 23.2062 39.4297 23 41.1586 23C43.0382 23 44.664 23.2062 46.0281 23.6107C47.4001 24.0151 48.5263 24.5782 49.4146 25.3079C50.3028 26.0375 50.9531 26.894 51.3735 27.8933C51.7938 28.8926 52 30.0029 52 31.2242C52 34.3727 51.0721 36.7441 49.2242 38.3461C49.018 38.5205 48.7801 38.7188 48.5025 38.9329C48.2249 39.1471 47.9474 39.3612 47.6857 39.5833C47.416 39.7974 47.1702 40.0036 46.9402 40.1939C46.7102 40.3843 46.5436 40.5429 46.4485 40.6698C46.3691 40.7491 46.2898 40.8681 46.2026 41.0346C46.1154 41.2012 46.0202 41.3677 45.9171 41.5501C45.814 41.7246 45.7267 41.8991 45.6474 42.0656C45.5681 42.2322 45.5205 42.367 45.4968 42.4621C45.1399 43.398 44.5847 44.1435 43.8234 44.6907C43.062 45.2379 42.0231 45.5076 40.6986 45.5076C39.3742 45.5076 38.3273 45.2221 37.5422 44.651C36.757 44.08 36.2574 43.3504 36.0591 42.4621H36.075ZM35.734 52.4708C35.734 50.8688 36.1939 49.5999 37.1218 48.664C38.0497 47.7282 39.2632 47.2523 40.7541 47.2523C42.3244 47.2523 43.5696 47.7203 44.4816 48.664C45.3937 49.5999 45.8536 50.8688 45.8536 52.4708C45.8536 53.1291 45.7267 53.7318 45.473 54.279C45.2192 54.8262 44.8623 55.3021 44.4102 55.7066C43.9503 56.111 43.411 56.4283 42.7924 56.6583C42.1738 56.8882 41.4917 56.9993 40.7541 56.9993C40.0166 56.9993 39.3425 56.8882 38.7397 56.6583C38.1291 56.4283 37.6056 56.111 37.1615 55.7066C36.7174 55.3021 36.3684 54.8262 36.1146 54.279C35.8609 53.7318 35.734 53.1291 35.734 52.4708Z" fill="black"/>
</g>
<defs>
<filter id="filter0_d_29_7" x="0" y="0" width="84" height="84" filterUnits="userSpaceOnUse" color-interpolation-filters="sRGB">
<feFlood flood-opacity="0" result="BackgroundImageFix"/>
<feColorMatrix in="SourceAlpha" type="matrix" values="0 0 0 0 0 0 0 0 0 0 0 0 0 0 0 0 0 0 127 0" result="hardAlpha"/>
<feOffset dx="1" dy="2"/>
<feGaussianBlur stdDeviation="1"/>
<feComposite in2="hardAlpha" operator="out"/>
<feColorMatrix type="matrix" values="0 0 0 0 0 0 0 0 0 0 0 0 0 0 0 0 0 0 0.1 0"/>
<feBlend mode="normal" in2="BackgroundImageFix" result="effect1_dropShadow_29_7"/>
<feBlend mode="normal" in="SourceGraphic" in2="effect1_dropShadow_29_7" result="shape"/>
</filter>
<filter id="filter1_d_29_7" x="29" y="23" width="26" height="37.9993" filterUnits="userSpaceOnUse" color-interpolation-filters="sRGB">
<feFlood flood-opacity="0" result="BackgroundImageFix"/>
<feColorMatrix in="SourceAlpha" type="matrix" values="0 0 0 0 0 0 0 0 0 0 0 0 0 0 0 0 0 0 127 0" result="hardAlpha"/>
<feOffset dx="1" dy="2"/>
<feGaussianBlur stdDeviation="1"/>
<feComposite in2="hardAlpha" operator="out"/>
<feColorMatrix type="matrix" values="0 0 0 0 0 0 0 0 0 0 0 0 0 0 0 0 0 0 0.1 0"/>
<feBlend mode="normal" in2="BackgroundImageFix" result="effect1_dropShadow_29_7"/>
<feBlend mode="normal" in="SourceGraphic" in2="effect1_dropShadow_29_7" result="shape"/>
</filter>
</defs>
</svg>
