<svg width="84" height="84" viewBox="0 0 84 84" fill="none" xmlns="http://www.w3.org/2000/svg">
<g filter="url(#filter0_d_161_113)">
<rect x="1" width="80" height="80" rx="20" fill="white"/>
<rect x="3" y="2" width="76" height="76" rx="18" stroke="black" stroke-width="4"/>
</g>
<mask id="path-3-inside-1_161_113" fill="white">
<path d="M56.9919 40.0977C57.003 36.4706 55.7835 32.9473 53.5335 30.1056C51.2834 27.2639 48.1363 25.2724 44.6081 24.4577C41.08 23.643 37.3802 24.0533 34.1153 25.6215C30.8505 27.1897 28.2145 29.8227 26.6394 33.0886C25.0643 36.3546 24.6437 40.0598 25.4465 43.5966C26.2493 47.1335 28.2279 50.2921 31.0578 52.5546C33.8878 54.8171 37.4011 56.0492 41.0218 56.0488C44.6425 56.0485 48.1557 54.8157 50.9852 52.5526L45.7718 46.0109C44.4226 47.0899 42.7475 47.6778 41.0211 47.6779C39.2947 47.6781 37.6195 47.0906 36.2701 46.0118C34.9207 44.933 33.9773 43.4269 33.5945 41.7405C33.2117 40.0541 33.4122 38.2874 34.1633 36.7301C34.9143 35.1728 36.1712 33.9174 37.728 33.1696C39.2847 32.4219 41.0488 32.2262 42.7311 32.6147C44.4134 33.0032 45.914 33.9527 46.9869 35.3077C48.0597 36.6627 48.6412 38.3427 48.6359 40.0722L56.9919 40.0977Z"/>
</mask>
<path d="M56.9919 40.0977C57.003 36.4706 55.7835 32.9473 53.5335 30.1056C51.2834 27.2639 48.1363 25.2724 44.6081 24.4577C41.08 23.643 37.3802 24.0533 34.1153 25.6215C30.8505 27.1897 28.2145 29.8227 26.6394 33.0886C25.0643 36.3546 24.6437 40.0598 25.4465 43.5966C26.2493 47.1335 28.2279 50.2921 31.0578 52.5546C33.8878 54.8171 37.4011 56.0492 41.0218 56.0488C44.6425 56.0485 48.1557 54.8157 50.9852 52.5526L45.7718 46.0109C44.4226 47.0899 42.7475 47.6778 41.0211 47.6779C39.2947 47.6781 37.6195 47.0906 36.2701 46.0118C34.9207 44.933 33.9773 43.4269 33.5945 41.7405C33.2117 40.0541 33.4122 38.2874 34.1633 36.7301C34.9143 35.1728 36.1712 33.9174 37.728 33.1696C39.2847 32.4219 41.0488 32.2262 42.7311 32.6147C44.4134 33.0032 45.914 33.9527 46.9869 35.3077C48.0597 36.6627 48.6412 38.3427 48.6359 40.0722L56.9919 40.0977Z" stroke="black" stroke-width="20" mask="url(#path-3-inside-1_161_113)"/>
<path d="M53.048 45.0243L46.1505 39.0031L59.9822 39.0455L53.048 45.0243Z" fill="black"/>
<defs>
<filter id="filter0_d_161_113" x="0" y="0" width="84" height="84" filterUnits="userSpaceOnUse" color-interpolation-filters="sRGB">
<feFlood flood-opacity="0" result="BackgroundImageFix"/>
<feColorMatrix in="SourceAlpha" type="matrix" values="0 0 0 0 0 0 0 0 0 0 0 0 0 0 0 0 0 0 127 0" result="hardAlpha"/>
<feOffset dx="1" dy="2"/>
<feGaussianBlur stdDeviation="1"/>
<feComposite in2="hardAlpha" operator="out"/>
<feColorMatrix type="matrix" values="0 0 0 0 0 0 0 0 0 0 0 0 0 0 0 0 0 0 0.1 0"/>
<feBlend mode="normal" in2="BackgroundImageFix" result="effect1_dropShadow_161_113"/>
<feBlend mode="normal" in="SourceGraphic" in2="effect1_dropShadow_161_113" result="shape"/>
</filter>
</defs>
</svg>
