<svg width="260" height="62" viewBox="0 0 260 62" fill="none" xmlns="http://www.w3.org/2000/svg">
<g clip-path="url(#clip0_20_18)">
<path d="M14.0051 41.3167C13.7776 41.5767 13.7776 41.8267 13.9853 42.0668C14.193 42.3068 14.4304 42.2768 14.6776 41.9768C15.2908 41.2066 16.2008 40.4465 17.4074 39.6764C18.614 38.9163 19.8602 38.3562 21.1361 37.9961C21.957 37.7661 22.8175 37.6761 23.6878 37.7161C24.5681 37.7561 25.4088 37.9661 26.2198 38.3362C27.0308 38.7062 27.7825 39.2863 28.4748 40.0464C29.177 40.8166 29.7606 41.8167 30.2254 43.0469C30.9771 45.0973 31.2738 46.8675 31.1254 48.3778C30.9771 49.878 30.4628 51.1882 29.5825 52.3084C28.7023 53.4286 27.5154 54.3688 26.0121 55.1389C24.5087 55.899 22.7977 56.5491 20.8789 57.0792C19.1976 57.5393 17.6547 57.8093 16.2502 57.8893C14.8458 57.9593 13.56 57.7793 12.4127 57.3292C11.2555 56.8792 10.217 56.169 9.27745 55.1889C8.33786 54.2087 7.49717 52.8685 6.7455 51.1882C6.05317 49.718 5.37073 47.8977 4.70807 45.7274C4.03552 43.557 3.41242 41.2966 2.82888 38.9563C2.24535 36.6159 1.73104 34.3255 1.27608 32.0952C0.821123 29.8648 0.445286 27.9645 0.148573 26.3842C-0.167921 24.3839 0.0793397 22.8637 0.860685 21.8335C1.65192 20.8033 2.90801 20.0432 4.64873 19.5631C6.38944 19.0831 7.8829 19.0731 9.11921 19.5431C10.3654 20.0132 11.3248 21.2134 12.0072 23.1437C12.2446 23.7738 12.5116 24.5639 12.8182 25.5041C13.1248 26.4443 13.4314 27.4544 13.738 28.5346C14.0446 29.6148 14.3513 30.7049 14.648 31.8151C14.9447 32.9253 15.2117 33.9755 15.4194 34.9556C15.637 35.9358 15.8051 36.8159 15.9337 37.576C16.0524 38.3362 16.1216 38.9063 16.1216 39.2663C15.2117 39.9164 14.5095 40.5865 14.015 41.2966L14.0051 41.3167ZM43.083 38.3662C43.3995 39.7764 43.6962 41.1766 43.9731 42.5769C44.2501 43.9771 44.4973 45.3773 44.7149 46.7775C45.0314 48.6778 44.794 50.2381 43.983 51.4583C43.1819 52.6785 41.9654 53.5086 40.3532 53.9587C38.4938 54.4688 36.8718 54.3587 35.4871 53.6086C34.1025 52.8585 33.2321 51.4083 32.8859 49.2479C32.1442 44.0771 31.1057 39.0263 29.7705 34.0855C28.4352 29.1447 26.833 24.3639 24.9637 19.7332C24.5285 18.623 24.3208 17.6128 24.3406 16.6927C24.3505 15.7725 24.5384 14.9724 24.8945 14.2723C25.2505 13.5722 25.7648 12.9821 26.4572 12.502C27.1495 12.0119 27.9506 11.6419 28.8605 11.3918C30.4826 10.9418 31.9365 11.0418 33.242 11.6719C34.5475 12.312 35.5465 13.5522 36.2487 15.4225C36.6641 16.4726 37.0597 17.5328 37.4257 18.603C37.8015 19.6832 38.1674 20.7833 38.5334 21.9035L39.8191 21.3934C40.8379 20.9134 41.817 21.2534 42.7566 22.4236C43.6962 23.5938 44.5765 25.7141 45.4171 28.8046C46.2578 31.9251 46.5644 34.2255 46.3468 35.7157C46.1293 37.206 45.4666 38.0361 44.3589 38.2062L43.0731 38.3662H43.083Z" fill="black"/>
<path d="M62.1021 34.6456C62.0824 34.4855 62.0626 34.3155 62.0527 34.1455C62.0527 33.9655 62.0329 33.8054 62.0032 33.6454C61.8054 33.6454 61.6076 33.6454 61.4098 33.6854C61.212 33.7254 61.0241 33.7254 60.8658 33.7154C59.3328 33.7454 57.9877 33.6854 56.8107 33.5454C55.6437 33.4054 54.625 33.1553 53.7546 32.7953C52.8842 32.4352 52.1524 31.9551 51.5589 31.335C50.9655 30.7249 50.4908 29.9748 50.1446 29.0947C49.749 28.1145 49.4028 27.0343 49.116 25.8442C48.8193 24.654 48.5918 23.4438 48.4138 22.2136C48.2456 20.9734 48.1368 19.7632 48.0973 18.573C48.0577 17.3828 48.0973 16.2626 48.2061 15.2124C48.4138 13.2421 49.0468 11.7019 50.1248 10.5717C51.2029 9.44151 52.7062 8.65138 54.6546 8.1813C55.2481 8.06129 56.158 7.89126 57.3844 7.67122C58.6207 7.45119 60.0153 7.21115 61.5779 6.97111C63.1406 6.73107 64.7824 6.49103 66.5133 6.24099C68.2342 5.99095 69.8859 5.76091 71.4486 5.53088C73.0113 5.30084 74.4157 5.12081 75.6619 4.97079C76.9081 4.82076 77.8279 4.73075 78.4214 4.67074C80.4192 4.55072 81.9918 4.76075 83.1391 5.33084C84.2864 5.89093 84.959 6.8911 85.1667 8.31133C85.3842 9.83157 85.0381 11.0718 84.1479 12.0219C83.2578 12.9721 81.7841 13.6022 79.7071 13.8922L63.5362 16.2126C63.8527 16.8427 64.1 17.6328 64.278 18.583C64.4561 19.5231 64.5451 20.2933 64.5253 20.8734C63.9022 21.2234 63.3582 21.4834 62.8835 21.6635C62.4087 21.8435 61.9439 22.0935 61.479 22.4236C61.1922 22.6636 61.123 22.9237 61.2812 23.2037C61.4296 23.4938 61.7164 23.5338 62.1417 23.3438C63.6648 22.5736 65.2869 21.8835 67.0078 21.2634C68.7287 20.6433 70.3903 20.1032 72.0025 19.6231C73.6146 19.1531 75.0982 18.763 76.4631 18.473C77.8279 18.1829 78.9357 17.9729 79.7764 17.8529C80.8445 17.7028 81.8237 17.6628 82.7336 17.7428C83.6435 17.8229 84.4446 18.0429 85.1469 18.393C85.8491 18.743 86.4623 19.2631 86.9667 19.9532C87.481 20.6433 87.8766 21.5135 88.1536 22.5736C88.3613 23.3838 88.4602 24.1639 88.4305 24.914C88.4107 25.6641 88.2426 26.3542 87.936 26.9943C87.6294 27.6344 87.1546 28.2145 86.5216 28.7246C85.8887 29.2347 85.048 29.6448 84.0095 29.9548C83.06 30.2549 82.0709 30.5349 81.0621 30.785C80.0434 31.045 78.9851 31.285 77.8972 31.5051L78.0159 32.3652L78.1444 33.2653C79.361 33.0253 80.5676 32.7753 81.7742 32.5052C82.9809 32.2352 84.2172 31.9251 85.4831 31.5851C86.3832 31.355 87.1942 31.335 87.936 31.4951C88.6778 31.6651 89.3305 31.9951 89.8943 32.4952C90.458 32.9953 90.9229 33.6154 91.2789 34.3555C91.635 35.0956 91.8823 35.9058 92.0009 36.7959C92.3075 39.0163 92.0504 40.7566 91.2196 42.0268C90.3888 43.297 89.0635 44.1571 87.2436 44.6072C82.0512 45.8974 76.9774 46.9076 72.0124 47.6177C67.0474 48.3278 61.8944 48.7979 56.5536 49.0079C54.7436 49.0779 53.2502 48.6178 52.093 47.6377C50.9358 46.6575 50.194 45.0573 49.8874 42.8369C49.7688 41.9468 49.7688 41.0966 49.9171 40.2865C50.0556 39.4763 50.3424 38.7462 50.7578 38.1061C51.1732 37.466 51.7172 36.9559 52.3699 36.5859C53.0227 36.2158 53.8041 36.0158 54.7338 35.9858C55.9997 35.9358 57.2558 35.8758 58.4921 35.8058C59.7284 35.7457 60.9647 35.6557 62.1912 35.5457L62.0626 34.6456H62.1021Z" fill="black"/>
<path d="M115.026 25.114C114.739 25.3041 114.67 25.5541 114.818 25.8342C114.967 26.1242 115.194 26.1542 115.511 25.9242C116.292 25.3441 117.37 24.834 118.725 24.4039C120.08 23.9739 121.425 23.7538 122.75 23.7438C123.601 23.7438 124.451 23.8638 125.292 24.1339C126.133 24.4039 126.894 24.814 127.587 25.3841C128.269 25.9542 128.853 26.7043 129.337 27.6244C129.822 28.5446 130.129 29.6648 130.267 30.975C130.475 33.1453 130.317 34.9456 129.792 36.3559C129.268 37.7661 128.437 38.9063 127.31 39.7664C126.182 40.6265 124.788 41.2266 123.146 41.5767C121.504 41.9268 119.684 42.1168 117.686 42.1268C115.946 42.1468 114.383 42.0068 113.008 41.7167C111.633 41.4267 110.437 40.9166 109.438 40.1865C108.439 39.4564 107.598 38.4962 106.945 37.306C106.283 36.1158 105.808 34.6056 105.501 32.7853C105.205 31.185 105.007 29.2547 104.908 26.9843C104.809 24.714 104.77 22.3736 104.799 19.9532C104.829 17.5328 104.898 15.1924 105.027 12.9221C105.145 10.6517 105.264 8.7114 105.383 7.11114C105.59 5.09081 106.204 3.69059 107.222 2.89046C108.241 2.10033 109.655 1.69027 111.465 1.68026C113.265 1.66026 114.709 2.04032 115.797 2.82045C116.875 3.59057 117.508 5.0108 117.686 7.05113C117.756 7.72124 117.815 8.55137 117.874 9.54153C117.934 10.5317 117.973 11.5919 117.993 12.712C118.023 13.8322 118.033 14.9724 118.042 16.1226C118.052 17.2728 118.042 18.353 118.003 19.3631C117.963 20.3733 117.904 21.2634 117.835 22.0335C117.766 22.8037 117.677 23.3638 117.588 23.7138C116.549 24.1039 115.698 24.584 115.036 25.124L115.026 25.114ZM143.886 29.7548C143.837 31.195 143.768 32.6253 143.688 34.0555C143.609 35.4857 143.491 36.8959 143.342 38.3062C143.164 40.2265 142.541 41.6767 141.453 42.6469C140.365 43.617 138.99 44.1071 137.309 44.1271C135.38 44.1471 133.838 43.617 132.69 42.5368C131.543 41.4567 131.068 39.8264 131.276 37.6561C131.859 32.4652 132.136 27.3144 132.087 22.1936C132.047 17.0727 131.701 12.0319 131.058 7.08113C130.92 5.90094 130.979 4.87078 131.226 3.98063C131.474 3.10049 131.85 2.37037 132.374 1.79028C132.888 1.21019 133.541 0.770117 134.332 0.48007C135.123 0.180022 135.994 0.0299976 136.943 0.019996C138.625 0.00999439 140.009 0.470069 141.107 1.42022C142.205 2.37037 142.858 3.84061 143.065 5.82093C143.204 6.94111 143.313 8.07129 143.402 9.20148C143.491 10.3417 143.57 11.4918 143.649 12.682L145.024 12.522C146.131 12.322 146.992 12.9021 147.605 14.2723C148.218 15.6425 148.535 17.9329 148.564 21.1334C148.594 24.3639 148.307 26.6743 147.724 28.0545C147.13 29.4347 146.28 30.0648 145.172 29.9548L143.886 29.7748V29.7548Z" fill="black"/>
<path d="M151.344 36.5659C151.65 33.6354 153.45 31.5351 156.734 30.2649C160.018 28.9947 165.062 28.7246 171.856 29.4648C178.651 30.1949 183.527 31.5351 186.474 33.4854C189.422 35.4257 190.737 37.8661 190.431 40.7966C190.272 42.2968 189.808 43.507 189.046 44.4372C188.275 45.3673 187.098 46.0474 185.515 46.4675C183.923 46.8876 181.866 47.0976 179.334 47.0776C176.802 47.0576 173.716 46.8576 170.066 46.4575C166.417 46.0674 163.351 45.6074 160.878 45.0773C158.405 44.5472 156.437 43.9171 154.973 43.157C153.51 42.4068 152.501 41.4867 151.947 40.4165C151.393 39.3464 151.195 38.0561 151.354 36.5659H151.344ZM174.863 24.964C173.726 26.0642 172.272 26.8743 170.501 27.3944C168.731 27.9145 166.545 28.0345 163.974 27.7545C161.521 27.4844 159.503 26.9544 157.911 26.1342C156.328 25.3241 155.082 24.2939 154.182 23.0537C153.282 21.8135 152.699 20.3933 152.441 18.783C152.184 17.1828 152.145 15.4525 152.343 13.6022C152.54 11.7219 152.916 10.0016 153.48 8.44137C154.044 6.88112 154.875 5.57091 155.972 4.51074C157.07 3.45057 158.485 2.69044 160.225 2.22037C161.966 1.75029 164.122 1.65028 166.704 1.93032C169.631 2.25037 171.936 2.91048 173.607 3.93064C175.279 4.95081 176.515 6.24102 177.306 7.81127L180.896 8.20133C181.045 6.51106 181.688 5.34087 182.845 4.69077C183.992 4.04066 185.466 3.81062 187.266 4.01066C188.937 4.19069 190.263 4.71077 191.252 5.57091C192.241 6.43105 192.765 7.69125 192.814 9.34152C192.973 12.092 192.884 15.0024 192.567 18.0529C192.251 21.1034 191.716 23.9639 190.994 26.6243C190.599 28.2246 189.837 29.3347 188.69 29.9448C187.543 30.5649 186.138 30.775 184.467 30.5949C182.677 30.4049 181.272 29.8748 180.263 29.0047C179.254 28.1445 178.849 26.9444 179.047 25.4241L174.893 24.974L174.863 24.964ZM161.966 13.2822C162.53 14.2723 163.331 15.1725 164.379 15.9526C165.428 16.7427 166.535 17.3428 167.693 17.7629C167.969 17.8529 168.207 17.8429 168.415 17.7229C168.622 17.6028 168.761 17.4428 168.84 17.2628C168.919 17.0828 168.949 16.8927 168.929 16.6927C168.899 16.4927 168.8 16.3526 168.612 16.2726C167.515 15.8026 166.525 15.2025 165.625 14.4823C164.725 13.7622 163.875 12.9221 163.054 11.9619C162.906 11.8219 162.747 11.7619 162.569 11.7919C162.391 11.8219 162.233 11.9119 162.085 12.052C161.946 12.202 161.847 12.382 161.788 12.602C161.729 12.8221 161.788 13.0521 161.956 13.2922L161.966 13.2822ZM167.465 38.5462C168.504 39.2663 169.611 39.6864 170.798 39.7964C171.975 39.9064 173.152 39.7364 174.309 39.2863C174.477 39.2063 174.626 39.0763 174.754 38.8763C174.883 38.6862 174.922 38.4562 174.853 38.1862C174.814 37.9861 174.695 37.8161 174.497 37.6661C174.309 37.5161 174.111 37.4961 173.904 37.6061C172.974 37.9861 171.975 38.1162 170.907 37.9861C169.839 37.8561 168.909 37.5061 168.108 36.936C167.96 36.8259 167.791 36.7859 167.594 36.8359C167.396 36.876 167.208 37.016 167.02 37.256C166.713 37.7661 166.852 38.2062 167.455 38.5562L167.465 38.5462ZM180.392 18.313C180.471 17.8429 180.53 17.3528 180.57 16.8627C180.609 16.3727 180.649 15.8826 180.698 15.4025L178.483 15.1625C178.463 15.3825 178.443 15.5925 178.443 15.7826C178.443 15.9726 178.424 16.1826 178.404 16.4027C178.374 16.6927 178.345 16.9727 178.315 17.2628C178.285 17.5528 178.236 17.8229 178.186 18.0729L180.402 18.313H180.392Z" fill="black"/>
<path d="M202.408 44.1771C200.202 43.597 198.481 42.8169 197.245 41.8368C196.009 40.8566 195.485 39.6364 195.692 38.1762C195.801 37.416 196.128 36.7859 196.662 36.2859C197.196 35.7858 197.908 35.3957 198.778 35.1057C199.658 34.8156 200.657 34.6256 201.785 34.5256C202.912 34.4256 204.109 34.4256 205.385 34.5256C207.106 34.6656 208.926 34.8456 210.844 35.0557C212.763 35.2757 214.682 35.5657 216.611 35.9358C218.539 36.3059 220.409 36.7359 222.209 37.216C224.019 37.7061 225.67 38.2862 227.174 38.9663C229.29 39.9264 230.883 40.9466 231.951 42.0568C233.019 43.157 233.701 44.2271 234.028 45.2473C234.473 46.7275 234.433 48.2478 233.909 49.798C233.395 51.3483 232.524 52.6785 231.298 53.7687C230.23 54.7388 228.865 55.3489 227.193 55.619C225.522 55.889 223.484 55.769 221.061 55.2689C218.519 54.7388 216.601 53.9087 215.295 52.7685C214 51.6283 213.357 50.3681 213.376 48.9979C213.406 47.4277 213.802 46.1674 214.553 45.2073C215.305 44.2471 216.304 43.387 217.55 42.6269C217.669 42.5269 217.728 42.4268 217.708 42.3468C217.699 42.2668 217.629 42.1768 217.521 42.1068C217.412 42.0268 217.283 41.9868 217.135 41.9668C216.996 41.9468 216.868 41.9768 216.749 42.0468C214.593 43.217 212.259 44.0171 209.747 44.4472C207.234 44.8772 204.772 44.7772 202.378 44.1571L202.408 44.1771ZM224.019 29.3147C223.603 30.725 223.168 31.8451 222.743 32.6653C222.308 33.4854 221.833 34.0855 221.309 34.4756C220.784 34.8656 220.201 35.0657 219.568 35.0757C218.935 35.0957 218.193 35.0056 217.362 34.8056C216.314 34.5656 215.453 34.2755 214.781 33.9555C214.108 33.6354 213.604 33.1854 213.258 32.6153C212.921 32.0452 212.743 31.2951 212.743 30.3749C212.743 29.4548 212.902 28.2746 213.238 26.8443C213.624 25.1641 213.792 23.7138 213.742 22.5036C213.693 21.2934 213.317 20.1132 212.605 18.9631C212.467 18.703 212.288 18.523 212.071 18.423C211.853 18.323 211.656 18.293 211.487 18.333C211.319 18.373 211.201 18.483 211.151 18.643C211.092 18.813 211.151 19.0131 211.329 19.2531C211.873 20.1333 212.19 21.1634 212.279 22.3336C212.368 23.5038 212.199 25.044 211.764 26.9443C211.468 28.2546 211.112 29.2747 210.696 30.0248C210.281 30.765 209.766 31.305 209.133 31.6351C208.5 31.9652 207.749 32.0952 206.849 32.0352C205.949 31.9752 204.871 31.7951 203.605 31.5051C201.419 30.995 199.807 30.0648 198.778 28.7246C197.75 27.3844 197.473 25.4741 197.947 22.9837C198.353 20.7834 198.946 19.1331 199.738 18.0329C200.529 16.9327 201.666 16.1826 203.15 15.7725C204.475 15.3925 205.543 14.9224 206.364 14.3823C207.185 13.8322 207.749 12.9021 208.046 11.6019C208.392 10.1016 209.084 9.17148 210.122 8.79142C211.171 8.41136 212.753 8.47137 214.88 8.96145C216.818 9.41152 218.203 10.0516 219.024 10.8618C219.845 11.6819 220.092 12.8021 219.766 14.2423C219.538 15.2425 219.687 16.1626 220.211 17.0027C220.735 17.8429 221.417 18.693 222.258 19.5532C222.723 18.643 223.257 18.0829 223.86 17.8829C224.464 17.6729 225.126 17.6629 225.868 17.8329L228.093 18.353C228.103 18.293 228.113 18.2129 228.123 18.1129C228.133 18.0129 228.143 17.9329 228.153 17.8729C228.252 16.8727 228.489 16.0626 228.885 15.4325C229.28 14.8024 229.775 14.3223 230.388 13.9823C231.001 13.6522 231.703 13.4622 232.514 13.4222C233.316 13.3822 234.186 13.4722 235.106 13.6822C236.738 14.0623 237.994 14.7424 238.884 15.7225C239.764 16.7027 240.13 18.0129 239.982 19.6532C239.606 25.1541 238.389 30.4549 236.352 35.5557C235.778 37.066 234.888 38.0661 233.672 38.5562C232.455 39.0463 231.031 39.0963 229.399 38.7162C227.52 38.2762 226.135 37.5061 225.245 36.4159C224.355 35.3257 224.216 33.9455 224.83 32.2752C224.988 31.8551 225.146 31.4251 225.294 31.005C225.443 30.5749 225.591 30.1549 225.759 29.7348L224.048 29.3347L224.019 29.3147Z" fill="black"/>
<path d="M237.39 54.1487C238.023 52.2384 239.072 50.9082 240.545 50.1481C242.009 49.398 243.651 49.3279 245.451 49.938C247.281 50.5581 248.547 51.6083 249.259 53.0986C249.971 54.5888 250.001 56.2891 249.368 58.1994C249.111 58.9895 248.715 59.6596 248.201 60.2097C247.686 60.7598 247.083 61.1899 246.401 61.4999C245.718 61.81 244.957 61.97 244.136 62C243.305 62.02 242.464 61.89 241.594 61.5899C240.723 61.2999 239.962 60.8898 239.319 60.3597C238.676 59.8396 238.172 59.2395 237.806 58.5794C237.44 57.9193 237.212 57.2092 237.133 56.4491C237.054 55.699 237.133 54.9189 237.4 54.1387L237.39 54.1487ZM242.494 41.4467C243.137 38.3862 243.839 35.3657 244.601 32.3652C245.362 29.3647 246.331 26.2942 247.498 23.1437C248.072 21.6135 249.071 20.5633 250.495 19.9832C251.919 19.4031 253.532 19.4231 255.332 20.0232C257.132 20.6333 258.427 21.6035 259.228 22.9337C260.03 24.2639 260.188 25.7141 259.743 27.2844C258.774 30.5049 257.705 33.5354 256.528 36.3959C255.351 39.2563 254.105 42.0968 252.8 44.9272C252.186 46.2775 251.326 47.2276 250.218 47.7977C249.111 48.3678 247.746 48.3778 246.124 47.8277C244.502 47.2776 243.414 46.4375 242.85 45.3073C242.286 44.1771 242.167 42.8869 242.474 41.4367L242.494 41.4467Z" fill="black"/>
</g>
<defs>
<clipPath id="clip0_20_18">
<rect width="260" height="62" fill="white"/>
</clipPath>
</defs>
</svg>
