<svg width="103" height="29" viewBox="0 0 103 29" fill="none" xmlns="http://www.w3.org/2000/svg">
<path d="M11.4154 5.42068H1.19541V0.632676H11.4154V5.42068ZM10.0294 1.78068H2.58141V4.27268H10.0294V1.78068ZM12.2834 6.62468V7.80068H7.00541V9.85868H5.60541V7.80068H0.341411V6.62468H12.2834ZM2.58141 11.1187H11.6814V12.3087H1.18141V8.82268H2.58141V11.1187ZM25.3022 0.492675V12.4487H23.9862V0.492675H25.3022ZM20.8922 0.562675H22.2082V12.2387H20.8922V6.34468H19.0022V5.04268H20.8922V0.562675ZM17.6302 2.18668C17.6209 3.53068 17.5509 4.73468 17.4202 5.79868L20.3322 10.9227L19.1982 11.5667L17.0702 7.70268C16.4822 10.1293 15.4275 11.4733 13.9062 11.7347V10.3767C14.6809 10.162 15.2689 9.33601 15.6702 7.89868C16.0715 6.45201 16.2815 4.54801 16.3002 2.18668H14.1022V0.926675H19.7302V2.18668H17.6302ZM27.909 3.64868H35.517V2.95268H27.909V2.11268H36.669V4.44068H29.061V5.12468H36.813V5.96468H27.909V3.64868ZM27.165 6.70868H37.401V7.57268H27.165V6.70868ZM27.873 9.81668H35.541V9.15668H27.849V8.31668H36.693V10.6087H29.025V11.2807H36.873V12.1207H27.873V9.81668ZM8.43069 21.7847C7.95069 22.3207 7.31869 22.7487 6.53469 23.0687C5.75869 23.3887 4.88669 23.5767 3.91869 23.6327V22.5407C4.99069 22.4607 5.89469 22.1927 6.63069 21.7367C7.37469 21.2727 7.85069 20.6887 8.05869 19.9847H4.18269V18.9047H8.07069V17.7407H9.29469V18.9047H13.2307V19.9847H9.34269C9.28669 20.2647 9.18669 20.5647 9.04269 20.8847L13.5067 22.5287L13.0987 23.5607L8.43069 21.7847ZM13.8307 25.7207H9.30669V28.4807H8.09469V25.7207H3.59469V24.6167H13.8307V25.7207ZM25.8537 23.2847H24.4137V28.2407H23.2257V17.9927H24.4137V22.1447H25.8537V23.2847ZM15.5097 18.3647H21.0897V20.8367C21.0897 22.1887 20.8657 23.3767 20.4177 24.4007C19.9697 25.4167 19.3257 26.2047 18.4857 26.7647C17.6457 27.3247 16.6537 27.6047 15.5097 27.6047V26.4767C16.4297 26.4767 17.2137 26.2487 17.8617 25.7927C18.5177 25.3287 19.0177 24.6767 19.3617 23.8367C19.7057 22.9967 19.8777 22.0047 19.8777 20.8607V19.4567H15.5097V18.3647ZM30.8326 19.6127H33.5566V20.6687H26.9086V19.6127H29.6206V17.9687H30.8326V19.6127ZM37.3966 23.2847H35.9566V28.2407H34.7686V17.9927H35.9566V22.1447H37.3966V23.2847ZM30.2326 21.4847C30.7846 21.4847 31.2766 21.6167 31.7086 21.8807C32.1406 22.1367 32.4766 22.5047 32.7166 22.9847C32.9566 23.4567 33.0766 24.0007 33.0766 24.6167C33.0766 25.2327 32.9566 25.7807 32.7166 26.2607C32.4766 26.7327 32.1406 27.0967 31.7086 27.3527C31.2766 27.6167 30.7846 27.7487 30.2326 27.7487C29.6806 27.7487 29.1886 27.6167 28.7566 27.3527C28.3246 27.0967 27.9846 26.7327 27.7366 26.2607C27.4966 25.7807 27.3766 25.2327 27.3766 24.6167C27.3766 24.0007 27.4966 23.4567 27.7366 22.9847C27.9846 22.5047 28.3246 22.1367 28.7566 21.8807C29.1886 21.6167 29.6806 21.4847 30.2326 21.4847ZM30.2326 26.7167C30.5526 26.7167 30.8406 26.6327 31.0966 26.4647C31.3526 26.2967 31.5526 26.0527 31.6966 25.7327C31.8486 25.4127 31.9246 25.0407 31.9246 24.6167C31.9246 24.1927 31.8486 23.8207 31.6966 23.5007C31.5526 23.1807 31.3526 22.9367 31.0966 22.7687C30.8406 22.6007 30.5526 22.5167 30.2326 22.5167C29.7366 22.5167 29.3286 22.7087 29.0086 23.0927C28.6886 23.4687 28.5286 23.9767 28.5286 24.6167C28.5286 25.2567 28.6886 25.7687 29.0086 26.1527C29.3286 26.5287 29.7366 26.7167 30.2326 26.7167ZM47.7876 17.9927V28.2407H46.5996V17.9927H47.7876ZM42.8076 18.2927C42.7916 19.8927 42.6556 21.2967 42.3996 22.5047L45.7116 26.9207L44.7516 27.6047L42.0276 23.8847C41.6436 25.0287 41.1436 25.9247 40.5276 26.5727C39.9116 27.2207 39.2036 27.5727 38.4036 27.6287V26.4287C39.0676 26.3247 39.6396 25.9007 40.1196 25.1567C40.5996 24.4047 40.9636 23.4287 41.2116 22.2287C41.4596 21.0287 41.5876 19.7007 41.5956 18.2447L42.8076 18.2927ZM59.6186 23.8727H58.4786V17.9927H59.6186V23.8727ZM54.1826 21.2447C53.9106 22.0207 53.3986 22.6167 52.6466 23.0327C51.9026 23.4487 51.0186 23.6607 49.9946 23.6687V22.6367C50.9866 22.6287 51.7786 22.3927 52.3706 21.9287C52.9626 21.4647 53.2586 20.8007 53.2586 19.9367V19.2527H49.9946V18.2447H54.4106V19.8887C54.4106 20.0007 54.4066 20.0847 54.3986 20.1407H55.9466V18.0527H57.0746V23.7647H55.9466V21.2447H54.1826ZM59.6546 28.1687L57.6146 26.5847C57.2786 27.0407 56.8746 27.3967 56.4026 27.6527C55.9386 27.9167 55.4426 28.0687 54.9146 28.1087L53.1146 26.6447C52.7786 27.0767 52.3786 27.4167 51.9146 27.6647C51.4506 27.9207 50.9626 28.0687 50.4506 28.1087V27.0287C50.8346 26.9887 51.2026 26.8407 51.5546 26.5847C51.9146 26.3287 52.2146 25.9887 52.4546 25.5647C52.6946 25.1327 52.8386 24.6607 52.8866 24.1487L54.0266 24.3167C53.9706 24.8367 53.8426 25.3247 53.6426 25.7807L55.2266 26.9687C55.5706 26.8807 55.8946 26.7047 56.1986 26.4407C56.5026 26.1767 56.7546 25.8487 56.9546 25.4567C57.1546 25.0567 57.2746 24.6207 57.3146 24.1487L58.4666 24.3167C58.4106 24.8207 58.2946 25.2807 58.1186 25.6967L60.3386 27.2927L59.6546 28.1687ZM66.3375 19.9007C65.7775 20.4447 65.0815 20.8767 64.2495 21.1967C63.4175 21.5167 62.5615 21.6847 61.6815 21.7007V20.7167C62.3535 20.6927 63.0175 20.5567 63.6735 20.3087C64.3295 20.0527 64.8935 19.7047 65.3655 19.2647C65.8375 18.8167 66.1375 18.3127 66.2655 17.7527L67.4535 17.9567C67.3735 18.3647 67.2135 18.7567 66.9735 19.1327L71.2215 20.8127L70.8255 21.7127L66.3375 19.9007ZM71.5455 22.5047V23.4527H61.3095V22.5047H71.5455ZM69.6615 24.2207H70.8255V28.1207H62.0175V24.2207H63.1935V25.1807H69.6615V24.2207ZM69.6615 27.1847V26.1047H63.1935V27.1847H69.6615ZM81.2285 17.9927H82.4165V28.2407L81.2285 28.2527V17.9927ZM73.4405 18.3047H74.6525V26.5367H77.6285C78.1085 26.5367 78.5925 26.4927 79.0805 26.4047C79.5685 26.3087 79.9685 26.1847 80.2805 26.0327V27.1247C79.9685 27.2767 79.5725 27.3967 79.0925 27.4847C78.6125 27.5807 78.1245 27.6287 77.6285 27.6287H73.4405V18.3047ZM95.1115 23.2847H93.7315V28.2407H92.5795V17.9927H93.7315V22.1447H95.1115V23.2847ZM84.6235 18.3647H87.5635V20.6807C87.5635 22.7287 87.3315 24.3247 86.8675 25.4687C86.4115 26.6047 85.6635 27.1967 84.6235 27.2447V26.1407C85.2715 26.0527 85.7315 25.5527 86.0035 24.6407C86.2755 23.7287 86.4115 22.4447 86.4115 20.7887V19.4447H84.6235V18.3647ZM88.0915 18.3647H91.0075V20.8367C91.0075 22.9567 90.7395 24.6007 90.2035 25.7687C89.6755 26.9367 88.8635 27.5487 87.7675 27.6047V26.5007C89.1595 26.3407 89.8555 24.4887 89.8555 20.9447V19.4447H88.0915V18.3647ZM98.4104 25.3247C98.4104 24.6047 98.5024 24.0327 98.6864 23.6087C98.8784 23.1767 99.2264 22.7887 99.7304 22.4447C100.154 22.1407 100.458 21.8647 100.642 21.6167C100.834 21.3687 100.93 21.0847 100.93 20.7647C100.93 20.3007 100.766 19.9287 100.438 19.6487C100.118 19.3687 99.6744 19.2287 99.1064 19.2287C98.7144 19.2287 98.3744 19.3127 98.0864 19.4807C97.8064 19.6487 97.5904 19.8647 97.4384 20.1287C97.2944 20.3927 97.2144 20.6687 97.1984 20.9567H95.9744C95.9904 20.4447 96.1304 19.9727 96.3944 19.5407C96.6584 19.1087 97.0224 18.7687 97.4864 18.5207C97.9584 18.2647 98.4944 18.1367 99.0944 18.1367C99.7264 18.1367 100.27 18.2527 100.726 18.4847C101.19 18.7087 101.542 19.0207 101.782 19.4207C102.022 19.8127 102.142 20.2607 102.142 20.7647C102.142 21.5967 101.698 22.3287 100.81 22.9607C100.466 23.1927 100.206 23.4287 100.03 23.6687C99.8544 23.9087 99.7344 24.1567 99.6704 24.4127C99.6144 24.6687 99.5864 24.9727 99.5864 25.3247H98.4104ZM99.0224 28.1807C98.7744 28.1807 98.5664 28.0927 98.3984 27.9167C98.2304 27.7487 98.1464 27.5407 98.1464 27.2927C98.1464 27.0447 98.2304 26.8367 98.3984 26.6687C98.5664 26.5007 98.7744 26.4167 99.0224 26.4167C99.2704 26.4167 99.4784 26.5007 99.6464 26.6687C99.8224 26.8367 99.9104 27.0447 99.9104 27.2927C99.9104 27.5487 99.8264 27.7607 99.6584 27.9287C99.4904 28.0967 99.2784 28.1807 99.0224 28.1807Z" fill="white"/>
</svg>
