<svg version="1.0" xmlns="http://www.w3.org/2000/svg"
 width="18" height="18" viewBox="0 0 18 18" fill="currentColor" style="transform:rotate(180deg)">

<g transform="scale(0.0035)" 
 stroke="none">
<path d="M2340 4955 l0 -165 -167 -2 -168 -3 -3 -167 -2 -168 -165 0 -165 0 0
-165 0 -165 -165 0 -165 0 0 -170 0 -170 -170 0 -170 0 0 -165 0 -165 -165 0
-165 0 0 -165 0 -165 -167 -2 -168 -3 -3 -167 -2 -168 -165 0 -165 0 0 -165 0
-165 165 0 165 0 0 -1225 0 -1225 780 0 780 0 0 1000 0 1000 670 0 670 0 0
-1000 0 -1000 780 0 780 0 0 1225 0 1225 165 0 165 0 0 165 0 165 -165 0 -165
0 -2 168 -3 167 -167 3 -168 2 0 1000 0 1000 -500 0 -500 0 0 -335 0 -335
-165 0 -165 0 -2 168 -3 167 -167 3 -168 2 0 165 0 165 -220 0 -220 0 0 -165z
m440 -335 l0 -170 170 0 170 0 0 -165 0 -165 165 0 165 0 0 -170 0 -170 165 0
165 0 2 503 3 502 165 0 165 0 3 -832 2 -833 165 0 165 0 0 -170 0 -170 170 0
170 0 0 -165 0 -165 -170 0 -170 0 0 165 0 165 -165 0 -165 0 0 170 0 170
-170 0 -170 0 0 165 0 165 -165 0 -165 0 0 165 0 165 -165 0 -165 0 0 170 0
170 -170 0 -170 0 0 165 0 165 -220 0 -220 0 0 -165 0 -165 -170 0 -170 0 0
-170 0 -170 -165 0 -165 0 0 -165 0 -165 -165 0 -165 0 0 -165 0 -165 -170 0
-170 0 0 -170 0 -170 -165 0 -165 0 0 -165 0 -165 -170 0 -170 0 0 165 0 165
170 0 170 0 0 170 0 170 165 0 165 0 0 165 0 165 170 0 170 0 0 165 0 165 165
0 165 0 0 170 0 170 165 0 165 0 0 165 0 165 170 0 170 0 0 170 0 170 220 0
220 0 0 -170z"/>
</g>
</svg>
