<?xml version="1.0" standalone="no"?>
<!DOCTYPE svg PUBLIC "-//W3C//DTD SVG 20010904//EN"
 "http://www.w3.org/TR/2001/REC-SVG-20010904/DTD/svg10.dtd">
<svg version="1.0" xmlns="http://www.w3.org/2000/svg"
 width="18" height="18" viewBox="0 0 18 18"
 preserveAspectRatio="xMidYMid meet" fill="currentColor">

<g transform="scale(0.003515)"
 stroke="none">
<path d="M2110 4955 l0 -165 -165 0 -165 0 0 -170 0 -170 -165 0 -165 0 0
-165 0 -165 -170 0 -170 0 0 -170 0 -170 -390 0 -390 0 0 -165 0 -165 -165 0
-165 0 0 -890 0 -890 165 0 165 0 0 -165 0 -165 390 0 390 0 0 -170 0 -170
170 0 170 0 0 -165 0 -165 165 0 165 0 0 -170 0 -170 165 0 165 0 0 -165 0
-165 335 0 335 0 0 165 0 165 168 2 167 3 0 2225 0 2225 -167 3 -168 2 0 165
0 165 -335 0 -335 0 0 -165z"/>
<path d="M3450 3285 l0 -165 165 0 165 0 0 165 0 165 -165 0 -165 0 0 -165z"/>
<path d="M4790 3285 l0 -165 165 0 165 0 0 165 0 165 -165 0 -165 0 0 -165z"/>
<path d="M3784 3107 c-2 -7 -3 -82 -2 -167 l3 -155 168 -3 167 -2 0 -165 0
-165 -167 -2 -168 -3 0 -165 0 -165 165 0 165 0 3 168 2 167 165 0 165 0 2
-167 3 -168 165 0 165 0 3 168 2 167 -170 0 -170 0 0 165 0 165 168 2 167 3 0
165 0 165 -167 3 -168 2 0 -170 0 -170 -165 0 -165 0 0 170 0 170 -165 0
c-126 0 -167 -3 -171 -13z"/>
<path d="M3450 1945 l0 -165 165 0 165 0 0 165 0 165 -165 0 -165 0 0 -165z"/>
<path d="M4790 1945 l0 -165 165 0 165 0 0 165 0 165 -165 0 -165 0 0 -165z"/>
</g>
</svg>
