<?xml version="1.0" standalone="no"?>
<!DOCTYPE svg PUBLIC "-//W3C//DTD SVG 20010904//EN"
 "http://www.w3.org/TR/2001/REC-SVG-20010904/DTD/svg10.dtd">
<svg version="1.0" xmlns="http://www.w3.org/2000/svg"
 width="18" height="18" viewBox="0 0 18 18" fill="currentColor" >

<g transform="scale(0.0035)" 
 stroke="none">
<path d="M2230 4955 l0 -165 -167 -2 -168 -3 -3 -168 -2 -167 -333 2 -332 3
-3 168 -2 167 -275 0 -275 0 0 -170 0 -170 -170 0 -170 0 0 -275 0 -275 168
-2 167 -3 3 -332 2 -333 -167 -2 -168 -3 -3 -167 -2 -168 -165 0 -165 0 0
-330 0 -330 165 0 165 0 2 -168 3 -167 168 -3 167 -2 -2 -333 -3 -332 -167 -3
-168 -2 0 -275 0 -275 170 0 170 0 0 -170 0 -170 275 0 275 0 2 167 3 168 332
3 333 2 2 -167 3 -168 168 -3 167 -2 0 -165 0 -165 330 0 330 0 0 165 0 165
168 2 167 3 3 168 2 167 333 -2 332 -3 3 -168 2 -167 275 0 275 0 0 170 0 170
170 0 170 0 0 275 0 275 -167 2 -168 3 -3 332 -2 333 167 2 168 3 3 168 2 167
165 0 165 0 0 330 0 330 -165 0 -165 0 -2 168 -3 167 -168 3 -167 2 2 333 3
332 168 3 167 2 0 275 0 275 -170 0 -170 0 0 170 0 170 -275 0 -275 0 -2 -167
-3 -168 -332 -3 -333 -2 -2 167 -3 168 -167 3 -168 2 0 165 0 165 -330 0 -330
0 0 -165z m890 -1670 l0 -165 165 0 165 0 0 -560 0 -560 -165 0 -165 0 0 -165
0 -165 -560 0 -560 0 0 165 0 165 -165 0 -165 0 0 560 0 560 165 0 165 0 0
165 0 165 560 0 560 0 0 -165z"/>
</g>
</svg>
