<svg width="18" height="18" viewBox="0 0 18 18" fill="currentColor" xmlns="http://www.w3.org/2000/svg">
    <g clip-path="url(#clip0_413_1843)">
    <path d="M5.48436 0.580078V1.16016L4.51053 1.16719L3.53319 1.17773L3.52264 1.76484L3.51561 2.35547H2.93553H2.35545V2.93555V3.51562L1.76834 3.52266L1.17772 3.5332L1.16717 4.50703L1.16014 5.48438H0.580063H-1.52588e-05V9V12.5156H0.580063H1.16014L1.16717 13.493L1.17772 14.4668L1.76834 14.4773L2.35545 14.4844V15.0645V15.6445H2.93553H3.51561L3.52264 16.2316L3.53319 16.8223L4.51053 16.8328L5.48436 16.8398V17.4199V18H8.99998H12.5156V17.4199V16.8398L13.493 16.8328L14.4668 16.8223L14.4773 16.2316L14.4844 15.6445H15.0644H15.6445V15.0645V14.4844L16.2351 14.4773L16.8223 14.4668L16.8328 13.4895L16.8398 12.5156H17.4199H18V9V5.48438H17.4199H16.8398L16.8328 4.50703L16.8223 3.5332L16.2351 3.52266L15.6445 3.51562V2.93555V2.35547H15.0644H14.4844L14.4773 1.76484L14.4668 1.17773L13.493 1.16719L12.5156 1.16016V0.580078V0H8.99998H5.48436V0.580078ZM12.5156 1.75781V2.35547H13.5H14.4844V2.93555V3.51562H15.0644H15.6445V4.5V5.48438H16.2422H16.8398V9V12.5156H16.2422H15.6445V13.5V14.4844H15.0644H14.4844V15.0645V15.6445H13.5H12.5156V16.2422V16.8398H8.99998H5.48436V16.2422V15.6445H4.49998H3.51561V15.0645V14.4844H2.93553H2.35545V13.5V12.5156H1.7578H1.16014V9V5.48438H1.7578H2.35545V4.5V3.51562H2.93553H3.51561V2.93555V2.35547H4.49998H5.48436V1.75781V1.16016H8.99998H12.5156V1.75781Z" />
    <path d="M4.28906 7.04883V9.38672H5.4668H6.64453V7.04883V4.71094H5.4668H4.28906V7.04883Z" />
    <path d="M11.3555 7.04883V9.38672H12.5332H13.7109V7.04883V4.71094H12.5332H11.3555V7.04883Z" />
    <path d="M4.71094 12.1289V13.2891H5.29102H5.87109V13.8867V14.4844H9H12.1289V13.8867V13.2891H12.709H13.2891V12.1289V10.9687H12.709H12.1289V12.1289V13.2891H9H5.87109V12.1289V10.9687H5.29102H4.71094V12.1289Z" />
    </g>
    <defs>
    <clipPath id="clip0_413_1843">
    <rect width="18" height="18" />
    </clipPath>
    </defs>
</svg>
