<svg width="44" height="44" viewBox="0 0 44 44" fill="none" xmlns="http://www.w3.org/2000/svg">
  <g clip-path="url(#clip0_226_1322)">
    <path d="M22 44C34.1503 44 44 34.1503 44 22C44 9.84974 34.1503 0 22 0C9.84974 0 0 9.84974 0 22C0 34.1503 9.84974 44 22 44Z" fill="#EAEAEA"/>
    <path d="M22.5338 15.3061L20.6671 17.1729C20.3248 17.5151 20.3248 18.0751 20.6671 18.4174C21.0093 18.7596 21.5693 18.7596 21.9116 18.4174L23.7783 16.5506C24.805 15.5239 26.4851 15.5239 27.5119 16.5506C28.5386 17.5773 28.5386 19.2574 27.5119 20.2842L25.6451 22.1509C25.3028 22.4932 25.3028 23.0532 25.6451 23.3954C25.9873 23.7377 26.5473 23.7377 26.8896 23.3954L28.7564 21.5287C30.4738 19.8113 30.4738 17.0235 28.7564 15.3061C27.039 13.5887 24.2512 13.5887 22.5338 15.3061ZM20.0448 24.0177C20.3871 24.3599 20.9471 24.3599 21.2893 24.0177L25.0228 20.2842C25.365 19.9419 25.365 19.3818 25.0228 19.0396C24.6806 18.6974 24.1205 18.6974 23.7783 19.0396L20.0448 22.7732C19.7026 23.1154 19.7026 23.6755 20.0448 24.0177ZM23.1561 24.6399L21.2893 26.5067C20.2626 27.5334 18.5825 27.5334 17.5557 26.5067C16.529 25.48 16.529 23.7999 17.5557 22.7732L19.4226 20.9064C19.7648 20.5642 19.7648 20.0042 19.4226 19.6619C19.0803 19.3196 18.5203 19.3196 18.1781 19.6619L16.3112 21.5287C14.5938 23.2461 14.5938 26.0338 16.3112 27.7512C18.0287 29.4686 20.8164 29.4686 22.5338 27.7512L24.4006 25.8844C24.7428 25.5422 24.7428 24.9822 24.4006 24.6399C24.0583 24.2977 23.4983 24.2977 23.1561 24.6399Z" fill="#3D3D3D"/>
  </g>
  <defs>
    <clipPath id="clip0_226_1322">
      <rect width="44" height="44" fill="white"/>
    </clipPath>
  </defs>
</svg>
