<svg version="1.0" xmlns="http://www.w3.org/2000/svg"
 width="18" height="18" viewBox="0 0 18 18" 
 fill="currentColor">

<g transform="scale(0.000840)" stroke="none">
<path d="M8330 20645 l0 -685 -685 0 -685 0 0 -710 0 -710 -690 0 -690 0 0
-690 0 -690 -705 0 -705 0 0 -5100 0 -5100 -690 0 -690 0 0 -688 0 -689 -542
-7 c-299 -3 -612 -9 -695 -13 l-153 -6 -5 -31 c-3 -17 -8 -328 -12 -691 l-8
-660 -687 -3 -688 -2 0 -1400 0 -1400 685 0 685 0 0 -685 0 -685 1400 0 1400
0 0 685 0 685 23 4 c12 3 315 8 672 11 358 3 659 9 671 11 20 5 22 14 27 157
4 84 10 396 13 695 l7 542 689 0 688 0 0 690 0 690 5100 0 5100 0 0 705 0 705
690 0 690 0 0 690 0 690 710 0 710 0 0 685 0 685 685 0 685 0 0 4415 0 4415
-685 0 -685 0 -2 688 -3 687 -707 3 -708 2 -2 708 -3 707 -687 3 -688 2 0 685
0 685 -4415 0 -4415 0 0 -685z m7420 -2795 l0 -690 705 0 705 0 0 -705 0 -705
690 0 690 0 0 -3000 0 -3000 -690 0 -690 0 0 -710 0 -710 -705 0 -705 0 0
-685 0 -685 -3000 0 -3000 0 0 684 0 684 -252 6 c-139 3 -454 9 -699 12 l-447
6 -6 447 c-3 245 -9 560 -12 699 l-6 252 -684 0 -684 0 0 3000 0 3000 685 0
685 0 0 705 0 705 710 0 710 0 0 690 0 690 3000 0 3000 0 0 -690z"/>
</g>
</svg>
