<svg width="47" height="47" viewBox="0 0 47 47" fill="none" xmlns="http://www.w3.org/2000/svg">
<path id="Vector" d="M14.005 30.3167C13.7775 30.5767 13.7775 30.8267 13.9852 31.0668C14.1929 31.3068 14.4303 31.2768 14.6776 30.9768C15.2908 30.2066 16.2007 29.4465 17.4073 28.6764C18.614 27.9163 19.8602 27.3562 21.136 26.9961C21.9569 26.7661 22.8174 26.6761 23.6878 26.7161C24.568 26.7561 25.4087 26.9661 26.2197 27.3362C27.0307 27.7062 27.7824 28.2863 28.4747 29.0464C29.177 29.8166 29.7605 30.8167 30.2254 32.0469C30.977 34.0973 31.2737 35.8675 31.1254 37.3778C30.977 38.878 30.4627 40.1882 29.5825 41.3084C28.7022 42.4286 27.5154 43.3688 26.012 44.1389C24.5087 44.899 22.7976 45.5491 20.8789 46.0792C19.1975 46.5393 17.6546 46.8093 16.2502 46.8893C14.8457 46.9593 13.56 46.7793 12.4127 46.3292C11.2555 45.8792 10.217 45.169 9.27739 44.1889C8.3378 43.2087 7.49711 41.8685 6.74544 40.1882C6.05311 38.718 5.37067 36.8977 4.70801 34.7274C4.03546 32.557 3.41236 30.2966 2.82882 27.9563C2.24529 25.6159 1.73098 23.3255 1.27602 21.0952C0.821062 18.8648 0.445225 16.9645 0.148512 15.3842C-0.167982 13.3839 0.0792786 11.8637 0.860624 10.8335C1.65186 9.80334 2.90795 9.04322 4.64866 8.56314C6.38938 8.08306 7.88284 8.07306 9.11915 8.54314C10.3653 9.01321 11.3247 10.2134 12.0072 12.1437C12.2445 12.7738 12.5116 13.5639 12.8182 14.5041C13.1248 15.4443 13.4314 16.4544 13.738 17.5346C14.0446 18.6148 14.3512 19.7049 14.6479 20.8151C14.9446 21.9253 15.2117 22.9755 15.4194 23.9556C15.6369 24.9358 15.8051 25.8159 15.9337 26.576C16.0523 27.3362 16.1216 27.9063 16.1216 28.2663C15.2117 28.9164 14.5094 29.5865 14.0149 30.2966L14.005 30.3167ZM43.0829 27.3662C43.3994 28.7764 43.6961 30.1766 43.9731 31.5769C44.25 32.9771 44.4973 34.3773 44.7149 35.7775C45.0314 37.6778 44.794 39.2381 43.983 40.4583C43.1818 41.6785 41.9653 42.5086 40.3532 42.9587C38.4938 43.4688 36.8717 43.3587 35.4871 42.6086C34.1024 41.8585 33.2321 40.4083 32.8859 38.2479C32.1441 33.0771 31.1056 28.0263 29.7704 23.0855C28.4352 18.1447 26.8329 13.3639 24.9636 8.73317C24.5285 7.62299 24.3208 6.61283 24.3405 5.69268C24.3504 4.77253 24.5383 3.9724 24.8944 3.27229C25.2505 2.57218 25.7648 1.98208 26.4571 1.502C27.1494 1.01192 27.9506 0.641864 28.8605 0.391824C30.4825 -0.0582488 31.9364 0.0417671 33.2419 0.671869C34.5475 1.31197 35.5464 2.55217 36.2486 4.42247C36.664 5.47264 37.0597 6.53281 37.4256 7.60299C37.8014 8.68316 38.1674 9.78334 38.5333 10.9035L39.8191 10.3934C40.8378 9.91336 41.817 10.2534 42.7565 11.4236C43.6961 12.5938 44.5764 14.7141 45.4171 17.8046C46.2578 20.9251 46.5644 23.2255 46.3468 24.7157C46.1292 26.206 45.4665 27.0361 44.3588 27.2061L43.073 27.3662H43.0829Z" fill="black"/>
</svg>
