<svg width="45" height="46" viewBox="0 0 45 46" fill="none" xmlns="http://www.w3.org/2000/svg">
<path id="Vector" d="M14.1021 30.6456C14.0823 30.4855 14.0625 30.3155 14.0526 30.1455C14.0526 29.9655 14.0328 29.8054 14.0032 29.6454C13.8054 29.6454 13.6076 29.6454 13.4097 29.6854C13.2119 29.7254 13.024 29.7254 12.8658 29.7154C11.3328 29.7454 9.98765 29.6854 8.81069 29.5454C7.64361 29.4054 6.6249 29.1553 5.75454 28.7953C4.88418 28.4352 4.15229 27.9551 3.55886 27.335C2.96544 26.7249 2.4907 25.9748 2.14453 25.0947C1.74891 24.1145 1.40275 23.0343 1.11592 21.8442C0.819209 20.654 0.59173 19.4438 0.413702 18.2136C0.245565 16.9734 0.13677 15.7632 0.0972082 14.573C0.0576464 13.3828 0.0972088 12.2626 0.206004 11.2124C0.413703 9.24212 1.04669 7.70187 2.12475 6.57169C3.20281 5.44151 4.70615 4.65138 6.65457 4.1813C7.248 4.06128 8.15792 3.89126 9.38433 3.67122C10.6206 3.45119 12.0152 3.21115 13.5779 2.97111C15.1406 2.73107 16.7824 2.49103 18.5132 2.24099C20.2342 1.99095 21.8859 1.76091 23.4485 1.53088C25.0112 1.30084 26.4157 1.12081 27.6619 0.970786C28.9081 0.820762 29.8279 0.730748 30.4213 0.670738C32.4192 0.550719 33.9918 0.760752 35.139 1.33084C36.2863 1.89093 36.9589 2.8911 37.1666 4.31133C37.3842 5.83157 37.038 7.07177 36.1479 8.02192C35.2577 8.97208 33.7841 9.60218 31.7071 9.89223L15.5362 12.2126C15.8527 12.8427 16.0999 13.6328 16.278 14.583C16.456 15.5231 16.545 16.2933 16.5252 16.8734C15.9021 17.2234 15.3582 17.4834 14.8834 17.6635C14.4087 17.8435 13.9438 18.0935 13.479 18.4236C13.1922 18.6636 13.1229 18.9237 13.2812 19.2037C13.4295 19.4938 13.7163 19.5338 14.1416 19.3437C15.6648 18.5736 17.2868 17.8835 19.0077 17.2634C20.7287 16.6433 22.3903 16.1032 24.0024 15.6231C25.6146 15.1531 27.0981 14.763 28.463 14.473C29.8279 14.1829 30.9356 13.9729 31.7763 13.8529C32.8445 13.7028 33.8236 13.6628 34.7335 13.7428C35.6435 13.8229 36.4446 14.0429 37.1468 14.3929C37.849 14.743 38.4622 15.2631 38.9667 15.9532C39.481 16.6433 39.8766 17.5135 40.1535 18.5736C40.3612 19.3838 40.4601 20.1639 40.4304 20.914C40.4107 21.6641 40.2425 22.3542 39.9359 22.9943C39.6293 23.6344 39.1546 24.2145 38.5216 24.7246C37.8886 25.2347 37.0479 25.6448 36.0094 25.9548C35.0599 26.2549 34.0709 26.5349 33.0621 26.7849C32.0433 27.045 30.9851 27.285 29.8971 27.5051L30.0158 28.3652L30.1444 29.2653C31.3609 29.0253 32.5675 28.7753 33.7742 28.5052C34.9808 28.2352 36.2171 27.9251 37.4831 27.5851C38.3831 27.355 39.1941 27.335 39.9359 27.4951C40.6777 27.6651 41.3305 27.9951 41.8942 28.4952C42.458 28.9953 42.9228 29.6154 43.2789 30.3555C43.6349 31.0956 43.8822 31.9058 44.0009 32.7959C44.3075 35.0163 44.0503 36.7566 43.2195 38.0268C42.3887 39.297 41.0634 40.1571 39.2436 40.6072C34.0511 41.8974 28.9773 42.9075 24.0123 43.6177C19.0473 44.3278 13.8944 44.7979 8.55354 45.0079C6.74359 45.0779 5.25013 44.6178 4.09294 43.6377C2.93576 42.6575 2.19398 41.0573 1.88738 38.8369C1.76869 37.9468 1.76869 37.0966 1.91705 36.2865C2.05552 35.4763 2.34234 34.7462 2.75774 34.1061C3.17313 33.466 3.71711 32.9559 4.36988 32.5859C5.02265 32.2158 5.80399 32.0158 6.7337 31.9858C7.99967 31.9358 9.25576 31.8758 10.4921 31.8058C11.7284 31.7457 12.9647 31.6557 14.1911 31.5457L14.0625 30.6456H14.1021Z" fill="black"/>
</svg>
