<svg width="46" height="48" viewBox="0 0 46 48" fill="none" xmlns="http://www.w3.org/2000/svg">
<path id="Vector" d="M7.40794 36.1771C5.20237 35.597 3.48143 34.8169 2.24513 33.8368C1.00882 32.8566 0.484635 31.6364 0.692335 30.1762C0.80113 29.416 1.12751 28.7859 1.66159 28.2859C2.19568 27.7858 2.90779 27.3957 3.77815 27.1057C4.6584 26.8156 5.65734 26.6256 6.78485 26.5256C7.91236 26.4256 9.10911 26.4256 10.385 26.5256C12.1059 26.6656 13.9257 26.8456 15.8445 27.0557C17.7632 27.2757 19.682 27.5657 21.6106 27.9358C23.5393 28.3059 25.4086 28.7359 27.2086 29.216C29.0186 29.7061 30.6703 30.2862 32.1736 30.9663C34.2902 31.9264 35.8825 32.9466 36.9507 34.0568C38.0189 35.157 38.7013 36.2271 39.0277 37.2473C39.4728 38.7275 39.4332 40.2478 38.909 41.798C38.3947 43.3483 37.5243 44.6785 36.2979 45.7687C35.2298 46.7388 33.8649 47.3489 32.1934 47.619C30.5219 47.889 28.4845 47.769 26.0613 47.2689C23.5195 46.7388 21.6007 45.9087 20.2952 44.7685C18.9995 43.6283 18.3567 42.3681 18.3765 40.9979C18.4061 39.4277 18.8017 38.1674 19.5534 37.2073C20.3051 36.2471 21.304 35.387 22.5502 34.6269C22.6689 34.5269 22.7282 34.4268 22.7085 34.3468C22.6986 34.2668 22.6293 34.1768 22.5205 34.1068C22.4117 34.0268 22.2832 33.9868 22.1348 33.9668C21.9963 33.9468 21.8678 33.9768 21.7491 34.0468C19.593 35.217 17.2588 36.0171 14.7467 36.4472C12.2345 36.8772 9.77176 36.7772 7.37827 36.1571L7.40794 36.1771ZM29.0186 21.3147C28.6032 22.725 28.168 23.8451 27.7427 24.6653C27.3075 25.4854 26.8328 26.0855 26.3086 26.4756C25.7844 26.8656 25.2009 27.0657 24.5679 27.0757C23.9349 27.0957 23.1931 27.0056 22.3623 26.8056C21.3139 26.5656 20.4534 26.2755 19.7809 25.9555C19.1083 25.6354 18.6039 25.1854 18.2578 24.6153C17.9215 24.0452 17.7435 23.2951 17.7435 22.3749C17.7435 21.4548 17.9017 20.2746 18.238 18.8443C18.6237 17.1641 18.7918 15.7138 18.7424 14.5036C18.6929 13.2934 18.3171 12.1132 17.605 10.9631C17.4665 10.703 17.2885 10.523 17.0709 10.423C16.8533 10.323 16.6555 10.293 16.4874 10.333C16.3192 10.373 16.2006 10.483 16.1511 10.643C16.0918 10.813 16.1511 11.0131 16.3291 11.2531C16.8731 12.1332 17.1896 13.1634 17.2786 14.3336C17.3676 15.5038 17.1995 17.044 16.7643 18.9443C16.4676 20.2546 16.1115 21.2747 15.6961 22.0248C15.2807 22.765 14.7664 23.3051 14.1334 23.6351C13.5005 23.9652 12.7488 24.0952 11.8488 24.0352C10.9487 23.9752 9.87067 23.7951 8.60469 23.5051C6.4189 22.995 4.80675 22.0649 3.77815 20.7246C2.74954 19.3844 2.47261 17.4741 2.94735 14.9837C3.35286 12.7834 3.94629 11.1331 4.73752 10.0329C5.52876 8.93273 6.66616 8.18261 8.14972 7.77255C9.47504 7.39249 10.5432 6.92241 11.3641 6.38232C12.185 5.83223 12.7488 4.90208 13.0455 3.60187C13.3917 2.10163 14.084 1.17148 15.1225 0.791421C16.1709 0.41136 17.7533 0.471369 19.8798 0.961448C21.8183 1.41152 23.203 2.05162 24.0239 2.86175C24.8448 3.68189 25.0921 4.80207 24.7657 6.2423C24.5382 7.24246 24.6865 8.16261 25.2107 9.00274C25.7349 9.84288 26.4174 10.693 27.2581 11.5532C27.7229 10.643 28.257 10.0829 28.8603 9.88289C29.4636 9.67285 30.1263 9.66285 30.8681 9.83288L33.0934 10.353C33.1033 10.293 33.1132 10.2129 33.1231 10.1129C33.133 10.0129 33.1429 9.9329 33.1528 9.87289C33.2517 8.87272 33.489 8.06259 33.8847 7.43249C34.2803 6.80239 34.7748 6.32231 35.388 5.98226C36.0012 5.6522 36.7034 5.46217 37.5145 5.42217C38.3156 5.38216 39.1859 5.47218 40.1058 5.68221C41.7377 6.06227 42.9938 6.74238 43.8839 7.72254C44.7642 8.7027 45.1301 10.0129 44.9817 11.6532C44.6059 17.1541 43.3894 22.4549 41.3519 27.5557C40.7783 29.066 39.8882 30.0661 38.6716 30.5562C37.4551 31.0463 36.0309 31.0963 34.399 30.7162C32.5198 30.2762 31.1351 29.5061 30.245 28.4159C29.3548 27.3257 29.2164 25.9455 29.8296 24.2752C29.9878 23.8551 30.1461 23.4251 30.2944 23.005C30.4428 22.5749 30.5911 22.1549 30.7593 21.7348L29.0482 21.3347L29.0186 21.3147Z" fill="black"/>
</svg>
