<svg width="42" height="47" viewBox="0 0 42 47" fill="none" xmlns="http://www.w3.org/2000/svg">
<path id="Vector" d="M0.343583 35.5659C0.650187 32.6354 2.45024 30.5351 5.73387 29.2649C9.0175 27.9947 14.0616 27.7246 20.8564 28.4647C27.6511 29.1948 32.5271 30.5351 35.4744 32.4854C38.4218 34.4257 39.7372 36.8661 39.4306 39.7966C39.2724 41.2968 38.8075 42.507 38.046 43.4371C37.2745 44.3673 36.0975 45.0474 34.5151 45.4675C32.9227 45.8875 30.8655 46.0976 28.3335 46.0776C25.8016 46.0576 22.7158 45.8575 19.0662 45.4575C15.4166 45.0674 12.3506 44.6073 9.87797 44.0772C7.40536 43.5472 5.43716 42.9171 3.97337 42.1569C2.50959 41.4068 1.50077 40.4867 0.946901 39.4165C0.393036 38.3463 0.195221 37.0561 0.353468 35.5659H0.343583ZM23.8631 23.964C22.7257 25.0642 21.2718 25.8743 19.5014 26.3944C17.731 26.9145 15.5452 27.0345 12.9737 26.7545C10.5208 26.4844 8.5032 25.9543 6.91084 25.1342C5.32837 24.3241 4.08217 23.2939 3.18214 22.0537C2.28211 20.8135 1.69857 19.3933 1.44142 17.783C1.18427 16.1828 1.1447 14.4525 1.34251 12.6022C1.54032 10.7219 1.91615 9.00159 2.47991 7.44134C3.04366 5.88109 3.87446 4.57088 4.9723 3.51071C6.07014 2.45054 7.48448 1.69041 9.2252 1.22034C10.9659 0.750261 13.122 0.650245 15.7034 0.93029C18.631 1.25034 20.9355 1.91045 22.607 2.93061C24.2785 3.95078 25.5148 5.24099 26.306 6.81124L29.8962 7.2013C30.0446 5.51103 30.6875 4.34084 31.8446 3.69074C32.9919 3.04063 34.4656 2.81059 36.2657 3.01063C37.9372 3.19065 39.2625 3.71074 40.2515 4.57088C41.2406 5.43102 41.7648 6.69122 41.8142 8.34149C41.9725 11.0919 41.8834 14.0024 41.5669 17.0529C41.2505 20.1034 40.7164 22.9638 39.9944 25.6243C39.5988 27.2245 38.8372 28.3347 37.6899 28.9448C36.5426 29.5649 35.1382 29.7749 33.4667 29.5949C31.6765 29.4049 30.2721 28.8748 29.2632 28.0047C28.2544 27.1445 27.8489 25.9443 28.0467 24.4241L23.8927 23.974L23.8631 23.964ZM10.9659 12.2821C11.5297 13.2723 12.3308 14.1724 13.3792 14.9526C14.4276 15.7427 15.5353 16.3428 16.6925 16.7628C16.9694 16.8529 17.2068 16.8429 17.4145 16.7228C17.6222 16.6028 17.7607 16.4428 17.8398 16.2628C17.9189 16.0827 17.9486 15.8927 17.9288 15.6927C17.8991 15.4926 17.8002 15.3526 17.6123 15.2726C16.5145 14.8025 15.5254 14.2024 14.6254 13.4823C13.7254 12.7622 12.8748 11.9221 12.0539 10.9619C11.9055 10.8219 11.7473 10.7619 11.5692 10.7919C11.3912 10.8219 11.233 10.9119 11.0846 11.0519C10.9461 11.2019 10.8472 11.382 10.7879 11.602C10.7285 11.822 10.7879 12.0521 10.956 12.2921L10.9659 12.2821ZM16.465 37.5462C17.5035 38.2663 18.6112 38.6864 19.7981 38.7964C20.975 38.9064 22.152 38.7364 23.3092 38.2863C23.4773 38.2063 23.6257 38.0763 23.7543 37.8762C23.8828 37.6862 23.9224 37.4562 23.8532 37.1861C23.8136 36.9861 23.6949 36.8161 23.4971 36.6661C23.3092 36.516 23.1114 36.496 22.9037 36.606C21.974 36.9861 20.975 37.1161 19.9069 36.9861C18.8387 36.8561 17.909 36.506 17.1079 35.9359C16.9595 35.8259 16.7914 35.7859 16.5936 35.8359C16.3958 35.8759 16.2078 36.0159 16.0199 36.256C15.7133 36.7661 15.8518 37.2061 16.4551 37.5562L16.465 37.5462ZM29.3918 17.3129C29.4709 16.8429 29.5303 16.3528 29.5699 15.8627C29.6094 15.3726 29.649 14.8825 29.6984 14.4025L27.483 14.1624C27.4632 14.3825 27.4434 14.5925 27.4434 14.7825C27.4434 14.9726 27.4236 15.1826 27.4038 15.4026C27.3742 15.6927 27.3445 15.9727 27.3148 16.2628C27.2851 16.5528 27.2357 16.8229 27.1862 17.0729L29.4017 17.3129H29.3918Z" fill="black"/>
</svg>
